<svg width="513" height="358" viewBox="0 0 513 358" fill="none" xmlns="http://www.w3.org/2000/svg">
<path d="M75.1258 318.33C175.299 370.59 337.701 370.59 437.874 318.33C538.048 266.07 538.036 181.345 437.874 129.085C337.713 76.8246 175.299 76.8246 75.1258 129.085C-25.0479 181.345 -25.0359 266.07 75.1258 318.33Z" fill="#F5F5F5"/>
<path d="M191.823 64.2864V67.9304C191.823 67.9304 193.523 66.6331 193.574 65.7075C193.625 64.782 191.823 64.2864 191.823 64.2864Z" fill="black"/>
<path d="M195.12 63.4045C195.3 63.9109 195.356 64.4437 195.285 64.9695C195.214 65.4953 195.017 66.0029 194.707 66.4606C194.397 66.9182 193.98 67.316 193.482 67.6291C192.984 67.9422 192.417 68.1638 191.815 68.2802C187.159 69.541 184.228 68.2802 183.523 69.4025C182.818 70.5249 205.655 81.792 205.655 81.792L201.314 65.5909L195.12 63.4045Z" fill="#80C4D3"/>
<path d="M197.091 232.201L295.306 183.576V19.9538C295.306 17.6217 293.811 16.4629 291.967 17.3812L288.637 19.0356L197.091 64.3593L197.176 65.0444L197.091 232.201Z" fill="#80C4D3"/>
<path opacity="0.2" d="M197.091 232.201L295.306 183.576V19.9538C295.306 17.6217 293.811 16.4629 291.967 17.3812L288.637 19.0356L197.091 64.3593L197.176 65.0444L197.091 232.201Z" fill="white"/>
<path d="M208.399 82.0543L213.208 77.4192L197.253 69.519C193.54 71.9168 190.694 73.1995 187.372 72.0042L208.399 82.0543Z" fill="#455A64"/>
<path d="M210.167 76.3334C210.124 76.3372 210.08 76.3319 210.04 76.3179C210 76.3039 209.965 76.2817 209.937 76.2533C209.771 76.0382 209.693 75.7817 209.716 75.5245V75.2985L197.822 69.4317C198.442 68.8171 198.828 68.0539 198.926 67.2454L289.384 22.439C290.202 22.0893 291.104 21.9072 292.018 21.9072C292.932 21.9072 293.834 22.0893 294.652 22.439L309.622 29.8436L218.459 74.5989C217.751 74.4786 217.031 74.4176 216.309 74.4167C214.609 74.3716 212.941 74.821 211.577 75.6921C211.196 76.0263 210.703 76.2504 210.167 76.3334Z" fill="#FAFAFA"/>
<path d="M292.018 22.2714C292.862 22.2567 293.697 22.422 294.448 22.7524L308.764 29.8436L218.382 74.22C217.699 74.1066 217.005 74.0505 216.309 74.0523C214.512 73.9983 212.748 74.477 211.313 75.4079C211.003 75.6632 210.628 75.8528 210.217 75.9618C210.159 75.8192 210.133 75.6683 210.141 75.5172V75.0654L209.691 74.8467L198.45 69.286C198.921 68.7364 199.235 68.1 199.368 67.4276L289.571 22.7524C290.319 22.4206 291.151 22.2552 291.993 22.2714H292.018ZM291.993 21.5426C291.001 21.5236 290.021 21.7244 289.146 22.1257L198.493 67.0267C198.493 67.0267 198.943 67.5806 197.252 69.5192L209.291 75.4735C209.291 75.4735 209.215 76.6979 210.141 76.6979C210.784 76.6183 211.38 76.3627 211.84 75.9691C213.125 75.1469 214.699 74.7252 216.301 74.7738C217.046 74.7709 217.79 74.8393 218.518 74.9779L310.472 29.8436L294.864 22.1257C293.99 21.7235 293.01 21.5226 292.018 21.5426H291.993Z" fill="#E0E0E0"/>
<path d="M210.166 81.0851C211.11 80.626 211.509 80.0867 211.067 79.868L210.294 79.4891C209.444 79.0664 210.234 77.9732 212.087 77.0549C213.939 76.1366 216.131 75.7285 216.98 76.1512L217.754 76.5302C218.195 76.7488 219.81 76.2969 221.373 75.5244L220.812 243.672L218.552 244.794C218.103 244.882 217.634 244.846 217.21 244.692L216.445 244.306C215.596 243.883 213.404 244.306 211.551 245.195C209.699 246.084 208.909 247.207 209.759 247.629L210.532 248.008C210.974 248.227 210.532 248.737 209.682 249.233L210.166 81.0851Z" fill="#80C4D3"/>
<path opacity="0.35" d="M210.166 81.0851C211.11 80.626 211.509 80.0867 211.067 79.868L210.294 79.4891C209.444 79.0664 210.234 77.9732 212.087 77.0549C213.939 76.1366 216.131 75.7285 216.98 76.1512L217.754 76.5302C218.195 76.7488 219.81 76.2969 221.373 75.5244L220.812 243.672L218.552 244.794C218.103 244.882 217.634 244.846 217.21 244.692L216.445 244.306C215.596 243.883 213.404 244.306 211.551 245.195C209.699 246.084 208.909 247.207 209.759 247.629L210.532 248.008C210.974 248.227 210.532 248.737 209.682 249.233L210.166 81.0851Z" fill="white"/>
<path d="M218.552 244.569V244.795L220.829 243.665L318.721 195.171V31.5417C318.721 29.2096 317.226 28.0508 315.382 28.9691L312.009 30.6234L218.552 74.9852V244.569Z" fill="#80C4D3"/>
<path opacity="0.5" d="M218.552 244.569V244.795L220.829 243.665L318.721 195.171V31.5417C318.721 29.2096 317.226 28.0508 315.382 28.9691L312.009 30.6234L218.552 74.9852V244.569Z" fill="white"/>
<path d="M211.237 248.402V80.1013L205.162 82.2003V250.035C206.302 250.241 207.489 250.142 208.561 249.75L211.237 248.402Z" fill="#80C4D3"/>
<path opacity="0.5" d="M211.237 248.402V80.1013L205.162 82.2003V250.035C206.302 250.241 207.489 250.142 208.561 249.75L211.237 248.402Z" fill="white"/>
<path d="M181.075 237.535C181.067 237.63 181.067 237.725 181.075 237.82C181.077 237.883 181.094 237.945 181.126 238.002C181.168 238.141 181.234 238.273 181.321 238.395C181.344 238.466 181.381 238.533 181.432 238.592C181.575 238.82 181.749 239.033 181.95 239.226C182.163 239.448 182.39 239.66 182.63 239.86C182.902 240.072 183.182 240.276 183.479 240.494C183.645 240.625 183.824 240.742 184.015 240.844L184.465 241.114C184.805 241.318 185.161 241.507 185.552 241.704L198.008 247.87C200.199 248.976 202.615 249.718 205.127 250.056V82.2L181.058 69.6575V237.492L181.075 237.535Z" fill="#80C4D3"/>
<g opacity="0.8">
<path opacity="0.8" d="M181.075 237.535C181.067 237.63 181.067 237.725 181.075 237.82C181.077 237.883 181.094 237.945 181.126 238.002C181.168 238.141 181.234 238.273 181.321 238.395C181.344 238.466 181.381 238.533 181.432 238.592C181.575 238.82 181.749 239.033 181.95 239.226C182.163 239.448 182.39 239.66 182.63 239.86C182.902 240.072 183.182 240.276 183.479 240.494C183.645 240.625 183.824 240.742 184.015 240.844L184.465 241.114C184.805 241.318 185.161 241.507 185.552 241.704L198.008 247.87C200.199 248.976 202.615 249.718 205.127 250.056V82.2L181.058 69.6575V237.492L181.075 237.535Z" fill="white"/>
</g>
<path d="M205.17 94.2619V111.811C197.251 110.47 184.958 104.341 181.058 99.8737V82.3315C186.512 87.6299 197.251 92.644 205.17 94.2619Z" fill="#FAFAFA"/>
<path d="M205.17 211.853V229.402C197.251 228.061 184.958 221.932 181.058 217.465V199.923C186.512 205.221 197.251 210.235 205.17 211.853Z" fill="#FAFAFA"/>
<path d="M199.784 80.903L201.433 78.4834C204.474 79.992 205.783 79.5912 206.717 79.5037C206.59 78.6762 206.794 77.8362 207.295 77.1206C208.082 76.0714 209.171 75.2131 210.455 74.6281C211.923 73.8902 213.551 73.4166 215.239 73.2361H215.596C216.605 73.1573 217.62 73.3214 218.527 73.7098L305.374 30.7109L308.322 29.2533L312.086 27.3876C312.381 27.2105 312.726 27.1054 313.086 27.0836C313.445 27.0618 313.804 27.124 314.125 27.2637L317.464 28.9108C317.136 28.766 316.769 28.6997 316.401 28.7189C316.034 28.7382 315.679 28.8422 315.374 29.0201H315.323L305.366 33.9613L221.381 75.5537C219.818 76.3262 218.195 76.7926 217.754 76.574L216.98 76.1877C216.427 75.9944 215.816 75.9611 215.239 76.093C214.131 76.2571 213.066 76.5904 212.095 77.0769C210.235 77.9951 209.444 79.0883 210.302 79.511L211.067 79.89C211.509 80.1086 211.067 80.6188 210.218 81.1071L208.518 81.9306C206.658 82.8125 203.718 82.8562 199.784 80.903Z" fill="#80C4D3"/>
<path opacity="0.7" d="M199.784 80.903L201.433 78.4834C204.474 79.992 205.783 79.5912 206.717 79.5037C206.59 78.6762 206.794 77.8362 207.295 77.1206C208.082 76.0714 209.171 75.2131 210.455 74.6281C211.923 73.8902 213.551 73.4166 215.239 73.2361H215.596C216.605 73.1573 217.62 73.3214 218.527 73.7098L305.374 30.7109L308.322 29.2533L312.086 27.3876C312.381 27.2105 312.726 27.1054 313.086 27.0836C313.445 27.0618 313.804 27.124 314.125 27.2637L317.464 28.9108C317.136 28.766 316.769 28.6997 316.401 28.7189C316.034 28.7382 315.679 28.8422 315.374 29.0201H315.323L305.366 33.9613L221.381 75.5537C219.818 76.3262 218.195 76.7926 217.754 76.574L216.98 76.1877C216.427 75.9944 215.816 75.9611 215.239 76.093C214.131 76.2571 213.066 76.5904 212.095 77.0769C210.235 77.9951 209.444 79.0883 210.302 79.511L211.067 79.89C211.509 80.1086 211.067 80.6188 210.218 81.1071L208.518 81.9306C206.658 82.8125 203.718 82.8562 199.784 80.903Z" fill="white"/>
<path d="M201.433 78.4833L187.227 71.414C186.93 71.2682 186.641 71.1079 186.377 70.9549L185.706 70.5394C185.683 70.529 185.662 70.5141 185.647 70.4957C188.06 71.3994 191.331 70.5394 193.489 69.4608C194.743 68.8831 195.805 68.0403 196.573 67.0121C197.125 66.2143 197.316 65.2699 197.108 64.3592L197.397 64.2135C197.592 64.1115 197.788 64.0313 197.983 63.9293L281.959 22.3661L286.768 19.9756C287.218 19.757 287.685 19.5165 288.161 19.2978L292.231 17.2645C292.51 17.135 292.822 17.0672 293.14 17.0672C293.457 17.0672 293.769 17.135 294.049 17.2645L293.131 16.8126L290.718 15.6101C290.456 15.4938 290.164 15.4331 289.869 15.4331C289.573 15.4331 289.282 15.4938 289.019 15.6101C289.019 15.6101 289.019 15.6101 288.977 15.6101C288.492 15.8433 287.999 16.1057 287.473 16.3389L286.538 16.8053C285.986 17.0896 285.425 17.3519 284.915 17.5997C284.55 17.7746 284.219 17.935 283.921 18.0953C283.624 18.2556 283.412 18.3358 283.208 18.4451L281.967 19.05L215.264 52.1009L193.956 62.6612C192.435 63.3899 191.543 64.1916 191.9 64.4467L192.027 64.5269L192.775 64.8986C193.701 65.3577 192.953 66.4655 191.076 67.3765C189.198 68.2875 187.771 68.3093 186.828 67.8939L185.919 67.4421C185.726 67.3291 185.505 67.2552 185.274 67.2262C185.043 67.1971 184.807 67.2136 184.585 67.2744C184.449 67.3327 184.279 67.4275 184.1 67.5149C183.922 67.6024 183.446 67.8429 183.047 68.0397C182.648 68.2364 182.197 68.4478 181.739 68.681C181.466 68.7953 181.248 68.9868 181.121 69.2232C180.994 69.4596 180.966 69.7263 181.042 69.9783C181.023 70.0379 181.023 70.1008 181.042 70.1605C181.082 70.2998 181.148 70.4327 181.237 70.554C181.254 70.6218 181.285 70.6862 181.331 70.7435C181.474 70.9715 181.648 71.1842 181.849 71.3776C182.062 71.5995 182.289 71.8112 182.529 72.0116C182.801 72.223 183.081 72.427 183.378 72.6457C183.547 72.776 183.729 72.8931 183.922 72.9955L184.364 73.2651C184.704 73.4692 185.06 73.666 185.451 73.8555L199.648 80.8956L201.433 78.4833Z" fill="#80C4D3"/>
<path opacity="0.7" d="M201.433 78.4833L187.227 71.414C186.93 71.2682 186.641 71.1079 186.377 70.9549L185.706 70.5394C185.683 70.529 185.662 70.5141 185.647 70.4957C188.06 71.3994 191.331 70.5394 193.489 69.4608C194.743 68.8831 195.805 68.0403 196.573 67.0121C197.125 66.2143 197.316 65.2699 197.108 64.3592L197.397 64.2135C197.592 64.1115 197.788 64.0313 197.983 63.9293L281.959 22.3661L286.768 19.9756C287.218 19.757 287.685 19.5165 288.161 19.2978L292.231 17.2645C292.51 17.135 292.822 17.0672 293.14 17.0672C293.457 17.0672 293.769 17.135 294.049 17.2645L293.131 16.8126L290.718 15.6101C290.456 15.4938 290.164 15.4331 289.869 15.4331C289.573 15.4331 289.282 15.4938 289.019 15.6101C289.019 15.6101 289.019 15.6101 288.977 15.6101C288.492 15.8433 287.999 16.1057 287.473 16.3389L286.538 16.8053C285.986 17.0896 285.425 17.3519 284.915 17.5997C284.55 17.7746 284.219 17.935 283.921 18.0953C283.624 18.2556 283.412 18.3358 283.208 18.4451L281.967 19.05L215.264 52.1009L193.956 62.6612C192.435 63.3899 191.543 64.1916 191.9 64.4467L192.027 64.5269L192.775 64.8986C193.701 65.3577 192.953 66.4655 191.076 67.3765C189.198 68.2875 187.771 68.3093 186.828 67.8939L185.919 67.4421C185.726 67.3291 185.505 67.2552 185.274 67.2262C185.043 67.1971 184.807 67.2136 184.585 67.2744C184.449 67.3327 184.279 67.4275 184.1 67.5149C183.922 67.6024 183.446 67.8429 183.047 68.0397C182.648 68.2364 182.197 68.4478 181.739 68.681C181.466 68.7953 181.248 68.9868 181.121 69.2232C180.994 69.4596 180.966 69.7263 181.042 69.9783C181.023 70.0379 181.023 70.1008 181.042 70.1605C181.082 70.2998 181.148 70.4327 181.237 70.554C181.254 70.6218 181.285 70.6862 181.331 70.7435C181.474 70.9715 181.648 71.1842 181.849 71.3776C182.062 71.5995 182.289 71.8112 182.529 72.0116C182.801 72.223 183.081 72.427 183.378 72.6457C183.547 72.776 183.729 72.8931 183.922 72.9955L184.364 73.2651C184.704 73.4692 185.06 73.666 185.451 73.8555L199.648 80.8956L201.433 78.4833Z" fill="white"/>
<path d="M223.973 79.7515V83.3954C223.973 83.3954 225.621 82.1055 225.672 81.2091C225.723 80.3126 223.973 79.7515 223.973 79.7515Z" fill="black"/>
<path d="M227.261 78.8623C227.446 79.3695 227.507 79.9042 227.439 80.4326C227.371 80.961 227.176 81.4715 226.866 81.9318C226.556 82.3922 226.138 82.7924 225.639 83.107C225.139 83.4217 224.569 83.644 223.964 83.7598C219.3 85.0206 216.369 83.7598 215.672 84.8822C214.975 86.0045 237.762 97.2717 237.762 97.2717L233.429 81.0706L227.261 78.8623Z" fill="#80C4D3"/>
<path opacity="0.3" d="M227.261 78.8623C227.446 79.3695 227.507 79.9042 227.439 80.4326C227.371 80.961 227.176 81.4715 226.866 81.9318C226.556 82.3922 226.138 82.7924 225.639 83.107C225.139 83.4217 224.569 83.644 223.964 83.7598C219.3 85.0206 216.369 83.7598 215.672 84.8822C214.975 86.0045 237.762 97.2717 237.762 97.2717L233.429 81.0706L227.261 78.8623Z" fill="black"/>
<path d="M229.232 247.666L327.447 199.034V35.419C327.447 33.0795 325.96 31.928 324.116 32.839L320.786 34.5007L229.232 79.8172L229.317 80.5095L229.232 247.666Z" fill="#80C4D3"/>
<path d="M240.54 97.5123L245.357 92.8772L229.402 84.9771C225.689 87.3821 222.843 88.6648 219.521 87.4622L240.54 97.5123Z" fill="#455A64"/>
<path d="M242.341 91.7912C242.298 91.7948 242.254 91.7901 242.213 91.7775C242.172 91.7649 242.134 91.7447 242.104 91.7183C241.948 91.4993 241.871 91.2458 241.883 90.9895V90.7709L230.031 84.9041C230.65 84.2889 231.035 83.526 231.135 82.7177L321.534 37.8968C322.352 37.547 323.253 37.365 324.168 37.365C325.082 37.365 325.983 37.547 326.801 37.8968L341.746 45.3013L250.583 90.0639C249.879 89.9362 249.161 89.8727 248.442 89.8745C246.741 89.8282 245.073 90.2778 243.709 91.1499C242.919 91.711 242.494 91.7912 242.341 91.7912Z" fill="#FAFAFA"/>
<path d="M324.167 37.7291C325.01 37.7116 325.844 37.8797 326.589 38.2174L340.896 45.3013L250.531 89.6777C249.848 89.5647 249.154 89.5086 248.458 89.5101C246.658 89.4588 244.891 89.94 243.454 90.8729C243.143 91.1265 242.768 91.3159 242.358 91.4268C242.304 91.2807 242.278 91.1281 242.282 90.9749V90.5304L241.823 90.3044L230.591 84.7437C231.059 84.1929 231.373 83.557 231.509 82.8853L321.737 38.2174C322.486 37.8806 323.322 37.7126 324.167 37.7291ZM324.167 37.0003C323.174 36.9849 322.192 37.1855 321.313 37.5834L230.642 82.4918C230.642 82.4918 231.084 83.0384 229.402 84.977L241.432 90.9385C241.432 90.9385 241.356 92.1556 242.282 92.1556C242.926 92.0786 243.523 91.8226 243.981 91.4268C245.269 90.6051 246.845 90.1836 248.45 90.2316C249.193 90.2281 249.935 90.2991 250.659 90.4429L342.595 45.3086L326.988 37.5834C326.112 37.1855 325.133 36.9849 324.142 37.0003H324.167Z" fill="#E0E0E0"/>
<path d="M242.341 96.5431C243.276 96.084 243.675 95.5447 243.234 95.326L242.469 94.9471C241.619 94.5244 242.401 93.4312 244.262 92.5129C246.122 91.5946 248.289 91.1865 249.138 91.6019L249.911 91.9882C250.353 92.2068 251.968 91.7549 253.531 90.9824L252.97 259.123L250.676 260.252C250.229 260.342 249.761 260.304 249.342 260.143L248.569 259.764C247.719 259.341 245.527 259.764 243.684 260.646C241.84 261.528 241.033 262.657 241.891 263.08L242.664 263.466C243.106 263.685 242.664 264.195 241.764 264.684L242.341 96.5431Z" fill="#80C4D3"/>
<path opacity="0.25" d="M242.341 96.5431C243.276 96.084 243.675 95.5447 243.234 95.326L242.469 94.9471C241.619 94.5244 242.401 93.4312 244.262 92.5129C246.122 91.5946 248.289 91.1865 249.138 91.6019L249.911 91.9882C250.353 92.2068 251.968 91.7549 253.531 90.9824L252.97 259.123L250.676 260.252C250.229 260.342 249.761 260.304 249.342 260.143L248.569 259.764C247.719 259.341 245.527 259.764 243.684 260.646C241.84 261.528 241.033 262.657 241.891 263.08L242.664 263.466C243.106 263.685 242.664 264.195 241.764 264.684L242.341 96.5431Z" fill="white"/>
<path d="M250.667 260.027V260.26L252.953 259.13L350.871 210.636V47.0069C350.871 44.6674 349.384 43.5159 347.54 44.4269L344.21 46.0886L250.667 90.4504V260.027Z" fill="#80C4D3"/>
<path opacity="0.4" d="M250.667 260.027V260.26L252.953 259.13L350.871 210.636V47.0069C350.871 44.6674 349.384 43.5159 347.54 44.4269L344.21 46.0886L250.667 90.4504V260.027Z" fill="white"/>
<path d="M243.386 263.867V95.5591L237.312 97.6653V265.5C238.439 265.695 239.609 265.594 240.667 265.208L243.386 263.867Z" fill="#80C4D3"/>
<path opacity="0.4" d="M243.386 263.867V95.5591L237.312 97.6653V265.5C238.439 265.695 239.609 265.594 240.667 265.208L243.386 263.867Z" fill="white"/>
<path d="M213.217 253.001C213.209 253.093 213.209 253.186 213.217 253.278C213.217 253.341 213.235 253.403 213.267 253.46C213.305 253.599 213.368 253.732 213.454 253.853C213.483 253.922 213.52 253.988 213.565 254.05C213.714 254.277 213.891 254.489 214.092 254.684C214.3 254.91 214.527 255.122 214.771 255.318C215.043 255.53 215.324 255.734 215.621 255.952C215.791 256.081 215.973 256.198 216.165 256.302L216.615 256.572C216.946 256.776 217.312 256.973 217.694 257.162L230.158 263.328C232.347 264.434 234.759 265.175 237.269 265.514V97.6653L213.208 85.1155V253.001H213.217Z" fill="#80C4D3"/>
<g opacity="0.7">
<path opacity="0.7" d="M213.217 253.001C213.209 253.093 213.209 253.186 213.217 253.278C213.217 253.341 213.235 253.403 213.267 253.46C213.305 253.599 213.368 253.732 213.454 253.853C213.483 253.922 213.52 253.988 213.565 254.05C213.714 254.277 213.891 254.489 214.092 254.684C214.3 254.91 214.527 255.122 214.771 255.318C215.043 255.53 215.324 255.734 215.621 255.952C215.791 256.081 215.973 256.198 216.165 256.302L216.615 256.572C216.946 256.776 217.312 256.973 217.694 257.162L230.158 263.328C232.347 264.434 234.759 265.175 237.269 265.514V97.6653L213.208 85.1155V253.001H213.217Z" fill="white"/>
</g>
<path d="M237.311 109.727V127.269C229.402 125.935 217.099 119.806 213.208 115.338V97.7891C218.663 103.087 229.402 108.102 237.311 109.727Z" fill="#FAFAFA"/>
<path d="M237.311 227.311V244.86C229.402 243.519 217.099 237.397 213.208 232.93V215.38C218.663 220.679 229.402 225.7 237.311 227.311Z" fill="#FAFAFA"/>
<path d="M231.934 96.361L233.573 93.9195C236.623 95.4281 237.923 95.0346 238.858 94.9398C238.736 94.1124 238.939 93.2737 239.436 92.5567C240.227 91.5099 241.314 90.6524 242.596 90.0642C244.069 89.3302 245.698 88.8568 247.388 88.6722C247.507 88.6722 247.634 88.6722 247.745 88.6722C248.754 88.5899 249.771 88.7541 250.676 89.1459L337.515 46.147L340.472 44.6894L344.235 42.7726C344.529 42.5929 344.874 42.4856 345.233 42.4625C345.593 42.4394 345.953 42.5013 346.274 42.6415L349.605 44.2885C349.279 44.1436 348.913 44.0772 348.546 44.0965C348.18 44.1157 347.826 44.2199 347.523 44.3979H347.472L337.498 49.3901L253.505 90.9825C251.942 91.755 250.319 92.2214 249.877 92.0028L249.138 91.6019C248.587 91.4019 247.974 91.366 247.397 91.4999C246.286 91.6638 245.218 91.997 244.244 92.4838C242.392 93.4094 241.602 94.4953 242.46 94.9252L243.225 95.3042C243.667 95.5229 243.267 96.033 242.333 96.5213L240.634 97.3376C238.815 98.2777 235.859 98.3069 231.934 96.361Z" fill="#80C4D3"/>
<path opacity="0.6" d="M231.934 96.361L233.573 93.9195C236.623 95.4281 237.923 95.0346 238.858 94.9398C238.736 94.1124 238.939 93.2737 239.436 92.5567C240.227 91.5099 241.314 90.6524 242.596 90.0642C244.069 89.3302 245.698 88.8568 247.388 88.6722C247.507 88.6722 247.634 88.6722 247.745 88.6722C248.754 88.5899 249.771 88.7541 250.676 89.1459L337.515 46.147L340.472 44.6894L344.235 42.7726C344.529 42.5929 344.874 42.4856 345.233 42.4625C345.593 42.4394 345.953 42.5013 346.274 42.6415L349.605 44.2885C349.279 44.1436 348.913 44.0772 348.546 44.0965C348.18 44.1157 347.826 44.2199 347.523 44.3979H347.472L337.498 49.3901L253.505 90.9825C251.942 91.755 250.319 92.2214 249.877 92.0028L249.138 91.6019C248.587 91.4019 247.974 91.366 247.397 91.4999C246.286 91.6638 245.218 91.997 244.244 92.4838C242.392 93.4094 241.602 94.4953 242.46 94.9252L243.225 95.3042C243.667 95.5229 243.267 96.033 242.333 96.5213L240.634 97.3376C238.815 98.2777 235.859 98.3069 231.934 96.361Z" fill="white"/>
<path d="M233.573 93.9193L219.402 86.8792L218.552 86.4127L217.881 86.0046C217.855 85.9934 217.834 85.9756 217.821 85.9536C220.226 86.8573 223.505 85.9973 225.655 84.9187C226.915 84.3455 227.981 83.5018 228.747 82.4699C229.297 81.6712 229.484 80.7269 229.274 79.8171L229.563 79.6714L230.149 79.3871L314.142 37.8021L318.959 35.4116C319.409 35.2003 319.877 34.9525 320.353 34.7338L324.414 32.7224C324.693 32.5929 325.005 32.5251 325.323 32.5251C325.64 32.5251 325.953 32.5929 326.232 32.7224L325.323 32.2705L322.859 31.1117C322.597 30.9942 322.305 30.9329 322.009 30.9329C321.713 30.9329 321.422 30.9942 321.16 31.1117C321.16 31.1117 321.16 31.1117 321.117 31.1117C320.633 31.3522 320.14 31.6073 319.613 31.8405L318.67 32.2997C318.118 32.5839 317.566 32.8463 317.056 33.094C316.691 33.2762 316.351 33.4366 316.054 33.5969C315.756 33.7573 315.552 33.8374 315.348 33.9467L314.099 34.5516L247.439 67.5515L226.139 78.0972C224.61 78.826 223.726 79.6204 224.083 79.8754C224.121 79.9073 224.164 79.9343 224.21 79.9556L224.958 80.3273C225.884 80.7864 225.137 81.8942 223.259 82.8052C221.381 83.7162 219.954 83.7453 219.011 83.3226L218.093 82.8708C217.902 82.7574 217.683 82.6833 217.453 82.6542C217.224 82.6251 216.989 82.6419 216.768 82.7032L216.275 82.951L215.222 83.4684L213.922 84.1097C213.65 84.225 213.432 84.4163 213.303 84.6521C213.175 84.8879 213.145 85.1542 213.217 85.407C213.216 85.4704 213.234 85.5329 213.267 85.5892C213.308 85.7272 213.371 85.8596 213.454 85.9827C213.478 86.0507 213.509 86.1166 213.548 86.1795C213.699 86.4025 213.876 86.6124 214.075 86.8063C214.283 87.0316 214.51 87.2435 214.754 87.4403C215.026 87.659 215.307 87.8557 215.604 88.0744C215.774 88.203 215.956 88.32 216.148 88.4242L216.598 88.7011C216.929 88.8979 217.295 89.0947 217.677 89.2842L231.882 96.3243L233.573 93.9193Z" fill="#80C4D3"/>
<path opacity="0.6" d="M233.573 93.9193L219.402 86.8792L218.552 86.4127L217.881 86.0046C217.855 85.9934 217.834 85.9756 217.821 85.9536C220.226 86.8573 223.505 85.9973 225.655 84.9187C226.915 84.3455 227.981 83.5018 228.747 82.4699C229.297 81.6712 229.484 80.7269 229.274 79.8171L229.563 79.6714L230.149 79.3871L314.142 37.8021L318.959 35.4116C319.409 35.2003 319.877 34.9525 320.353 34.7338L324.414 32.7224C324.693 32.5929 325.005 32.5251 325.323 32.5251C325.64 32.5251 325.953 32.5929 326.232 32.7224L325.323 32.2705L322.859 31.1117C322.597 30.9942 322.305 30.9329 322.009 30.9329C321.713 30.9329 321.422 30.9942 321.16 31.1117C321.16 31.1117 321.16 31.1117 321.117 31.1117C320.633 31.3522 320.14 31.6073 319.613 31.8405L318.67 32.2997C318.118 32.5839 317.566 32.8463 317.056 33.094C316.691 33.2762 316.351 33.4366 316.054 33.5969C315.756 33.7573 315.552 33.8374 315.348 33.9467L314.099 34.5516L247.439 67.5515L226.139 78.0972C224.61 78.826 223.726 79.6204 224.083 79.8754C224.121 79.9073 224.164 79.9343 224.21 79.9556L224.958 80.3273C225.884 80.7864 225.137 81.8942 223.259 82.8052C221.381 83.7162 219.954 83.7453 219.011 83.3226L218.093 82.8708C217.902 82.7574 217.683 82.6833 217.453 82.6542C217.224 82.6251 216.989 82.6419 216.768 82.7032L216.275 82.951L215.222 83.4684L213.922 84.1097C213.65 84.225 213.432 84.4163 213.303 84.6521C213.175 84.8879 213.145 85.1542 213.217 85.407C213.216 85.4704 213.234 85.5329 213.267 85.5892C213.308 85.7272 213.371 85.8596 213.454 85.9827C213.478 86.0507 213.509 86.1166 213.548 86.1795C213.699 86.4025 213.876 86.6124 214.075 86.8063C214.283 87.0316 214.51 87.2435 214.754 87.4403C215.026 87.659 215.307 87.8557 215.604 88.0744C215.774 88.203 215.956 88.32 216.148 88.4242L216.598 88.7011C216.929 88.8979 217.295 89.0947 217.677 89.2842L231.882 96.3243L233.573 93.9193Z" fill="white"/>
<path d="M398.993 208.479V15.2532C398.993 10.8002 397.149 9.98397 394.864 8.85433C392.578 7.7247 389.885 7.59352 386.631 9.20415L260.667 71.5963C258.955 72.5546 257.529 73.8461 256.508 75.3657C255.486 76.8853 254.897 78.5902 254.788 80.3419V273.56C254.788 276.781 255.935 277.933 258.187 279.092C260.438 280.25 263.862 281.22 267.116 279.609L393.079 217.217C394.926 216.387 396.461 215.127 397.507 213.58C398.554 212.034 399.069 210.265 398.993 208.479Z" fill="#37474F"/>
<path d="M393.698 210.111L265.407 273.669V79.6931L256.503 75.364C255.453 76.8698 254.868 78.5806 254.804 80.3344V273.56C254.804 276.781 255.951 277.933 258.202 279.092C260.454 280.25 263.878 281.22 267.132 279.609L393.095 217.217C395.408 216.154 397.212 214.428 398.193 212.341L397.861 212.181L393.698 210.111Z" fill="#263238"/>
<path d="M392.96 13.7592L266.751 76.2971C265.55 76.9691 264.55 77.8741 263.833 78.9389C263.116 80.0037 262.701 81.1984 262.621 82.4263V274.223C262.621 277.678 265.485 279.092 268.968 277.357L392.96 215.956C394.319 215.191 395.449 214.164 396.261 212.957C397.072 211.749 397.542 210.395 397.633 209.003V16.0768C397.633 13.526 395.526 12.4838 392.96 13.7592Z" fill="#455A64"/>
<path d="M335.195 235.488C335.195 238.359 333.165 241.69 330.65 242.936C328.135 244.182 326.113 242.856 326.113 240.021C326.113 237.186 328.143 233.812 330.65 232.573C333.156 231.334 335.195 232.616 335.195 235.488Z" fill="#263238"/>
<path d="M395.382 32.234V192.678C395.296 194.018 394.844 195.322 394.062 196.485C393.279 197.647 392.189 198.635 390.879 199.369L271.415 258.54C268.934 259.779 266.921 258.78 266.921 256.317V94.6772C267.058 92.4583 268.187 90.3701 270.073 88.8469L270.506 88.5189C270.792 88.3187 271.096 88.1384 271.415 87.9796L389.239 29.6541L389.681 29.4282C392.816 27.8613 395.382 29.1294 395.382 32.234Z" fill="black"/>
<path d="M384.345 195.04C385.654 194.304 386.743 193.314 387.523 192.151C388.304 190.987 388.755 189.683 388.84 188.342V29.8291L271.415 87.9943C271.096 88.1531 270.792 88.3334 270.506 88.5336L270.073 88.8615C268.187 90.3848 267.058 92.473 266.921 94.6919V253.198L384.345 195.04Z" fill="#FAFAFA"/>
<path d="M278.093 92.9136L376.342 44.2446V188.357L278.093 237.026V92.9136Z" fill="#80C4D3"/>
<path d="M275.34 91.5288L278.093 92.9135V237.026L275.34 235.663V91.5288Z" fill="#80C4D3"/>
<path opacity="0.3" d="M275.34 91.5288L278.093 92.9135V237.026L275.34 235.663V91.5288Z" fill="black"/>
<path d="M275.34 91.5288L373.589 42.8599L376.334 44.2446L278.093 92.9135L275.34 91.5288Z" fill="#80C4D3"/>
<path opacity="0.35" d="M275.34 91.5288L373.589 42.8599L376.334 44.2446L278.093 92.9135L275.34 91.5288Z" fill="white"/>
<path d="M280.914 95.4206L283.786 96.8782C287.337 98.6711 301.186 98.2338 310.353 93.7007L384.558 56.9329L371.601 50.5195L280.914 95.4206Z" fill="#E0E0E0"/>
<path d="M290.667 230.423C287.6 230.423 285.17 230.087 283.998 229.49L281.339 228.149V96.0545L283.573 97.1915C284.89 97.8547 287.413 98.2191 290.667 98.2191C296.181 98.2191 304.261 97.1113 310.565 93.9993L384.133 57.5596V189.646L310.14 226.305C304.006 229.344 296.062 230.423 290.667 230.423Z" fill="#FAFAFA"/>
<path d="M383.708 58.1939V189.443L309.928 225.992C303.87 228.994 296.011 230.058 290.667 230.058C287.719 230.058 285.306 229.731 284.219 229.177L281.763 227.938V96.7035L283.361 97.5124C284.737 98.2412 287.337 98.5911 290.667 98.5911C296.232 98.5911 304.44 97.4687 310.778 94.3276L383.708 58.2012V58.1939ZM384.558 56.9404L310.353 93.6935C304.406 96.6087 296.47 97.8623 290.667 97.8623C287.541 97.8623 285.026 97.5124 283.786 96.8857L280.914 95.4281V228.36L283.786 229.818C285.026 230.452 287.541 230.802 290.667 230.802C296.47 230.802 304.397 229.585 310.353 226.64L384.524 189.895V56.9331L384.558 56.9404Z" fill="#E0E0E0"/>
<path d="M310.353 144.738C306.778 146.429 302.903 147.603 298.883 148.215V150.569C302.903 149.957 306.778 148.783 310.353 147.092L376.792 114.114V111.76L310.353 144.738Z" fill="#E0E0E0"/>
<path d="M310.353 150.525C306.776 152.212 302.902 153.386 298.883 154.001V156.348C302.901 155.736 306.776 154.564 310.353 152.879L376.792 119.894V117.547L310.353 150.525Z" fill="#E0E0E0"/>
<path d="M310.353 156.304C306.778 157.995 302.903 159.169 298.883 159.781V162.135C302.902 161.52 306.776 160.346 310.353 158.658L376.792 125.68V123.326L310.353 156.304Z" fill="#E0E0E0"/>
<path d="M310.353 162.091C306.776 163.776 302.901 164.948 298.883 165.56V167.914C302.903 167.302 306.778 166.128 310.353 164.438L376.792 131.46V129.113L310.353 162.091Z" fill="#E0E0E0"/>
<path d="M310.353 167.87C306.778 169.561 302.903 170.735 298.883 171.347V173.693C302.901 173.081 306.776 171.909 310.353 170.224L376.792 137.246V134.892L310.353 167.87Z" fill="#E0E0E0"/>
<path d="M310.353 173.65C306.778 175.34 302.903 176.515 298.883 177.126V179.48C302.903 178.869 306.778 177.694 310.353 176.004L376.792 143.026V140.672L310.353 173.65Z" fill="#E0E0E0"/>
<path d="M310.353 179.436C306.777 181.124 302.902 182.296 298.883 182.905V185.259C302.901 184.647 306.776 183.475 310.353 181.79L376.792 148.805V146.458L310.353 179.436Z" fill="#E0E0E0"/>
<path d="M310.353 185.216C306.778 186.906 302.903 188.08 298.883 188.692V191.046C302.902 190.431 306.776 189.257 310.353 187.57L376.792 154.592V152.238L310.353 185.216Z" fill="#E0E0E0"/>
<path d="M310.353 191.002C306.776 192.687 302.901 193.859 298.883 194.471V196.825C302.903 196.214 306.778 195.039 310.353 193.349L376.792 160.371V158.024L310.353 191.002Z" fill="#E0E0E0"/>
<path d="M310.353 196.781C306.778 198.472 302.903 199.646 298.883 200.258V202.605C302.901 201.992 306.776 200.821 310.353 199.135L376.792 166.157V163.803L310.353 196.781Z" fill="#E0E0E0"/>
<path d="M310.353 202.561C306.778 204.251 302.903 205.426 298.883 206.037V208.391C302.903 207.78 306.778 206.606 310.353 204.915L376.792 171.937V169.583L310.353 202.561Z" fill="#E0E0E0"/>
<path d="M310.353 208.348C306.777 210.036 302.902 211.208 298.883 211.817V214.171C302.903 213.559 306.778 212.385 310.353 210.694L376.792 177.716V175.37L310.353 208.348Z" fill="#E0E0E0"/>
<path opacity="0.15" d="M374.524 51.9553L347.914 65.4235L375.391 52.3853L374.524 51.9553ZM379.741 54.5425L324.839 81.2602L380.633 55.0236L379.741 54.5425Z" fill="black"/>
<path opacity="0.03" d="M294.915 97.6581C289.877 98.1026 285.57 97.7674 283.786 96.8782L280.914 95.4207V228.353L283.786 229.811C285.553 230.707 289.877 231.042 294.915 230.598V97.6581Z" fill="black"/>
<path d="M333.25 125.207L333.861 124.769C334.235 124.5 334.252 124.361 334.252 123.815V116.898C334.252 116.352 334.252 116.257 333.853 116.359L333.25 116.527V115.718L336.708 114.005V114.814L336.036 115.295C335.722 115.521 335.688 115.696 335.688 116.199V123.159C335.688 123.647 335.688 123.764 336.045 123.676L336.708 123.501V124.31L333.25 126.016V125.207Z" fill="#455A64"/>
<path d="M337.447 123.115L337.846 122.809C338.21 122.534 338.473 122.175 338.602 121.774L340.557 117.452L338.458 114.705C338.203 114.391 338.067 114.369 337.753 114.42L337.396 114.479L337.523 113.597L340.684 112.03V112.853L340.106 113.269C340.056 113.301 340.014 113.341 339.984 113.388C339.954 113.434 339.936 113.486 339.931 113.539C339.926 113.593 339.935 113.646 339.956 113.696C339.978 113.747 340.011 113.792 340.055 113.83L341.415 115.645L342.715 112.584C342.893 112.176 342.927 111.993 342.613 112.045L342.094 112.11L342.205 111.279L344.975 109.902V110.725L344.533 111.068C344.187 111.317 343.938 111.65 343.819 112.023L341.992 116.228L344.142 119.048C344.171 119.109 344.215 119.164 344.27 119.21C344.325 119.255 344.39 119.291 344.462 119.314C344.533 119.337 344.61 119.348 344.686 119.345C344.763 119.341 344.838 119.325 344.907 119.296L345.297 119.194V120.025L341.848 121.737V120.914L342.4 120.52C342.462 120.487 342.514 120.441 342.552 120.388C342.59 120.335 342.614 120.274 342.622 120.212C342.629 120.15 342.62 120.087 342.595 120.028C342.57 119.969 342.529 119.915 342.477 119.872L341.109 118.094L339.681 121.337C339.529 121.665 339.486 121.876 339.775 121.818L340.353 121.694V122.474L337.447 123.931V123.115Z" fill="#455A64"/>
<path d="M334.099 206.423L335.195 205.877V206.343L334.099 206.883V206.423Z" fill="#455A64"/>
<path d="M336.274 206.751L336.572 206.54C336.611 206.514 336.641 206.479 336.658 206.439C336.676 206.399 336.682 206.356 336.674 206.314V204.616C336.674 204.47 336.674 204.39 336.538 204.448L336.224 204.601V204.288L337.022 203.756H337.124V206.023C337.124 206.183 337.124 206.198 337.226 206.168L337.506 206.088V206.365L336.249 206.992L336.274 206.751Z" fill="#455A64"/>
<path d="M337.77 206.846C338.095 206.673 338.369 206.438 338.569 206.158C338.77 205.878 338.892 205.563 338.925 205.236C338.925 204.893 338.781 204.762 338.594 204.776C338.475 204.904 338.344 205.023 338.203 205.134L338.161 204.813C338.359 204.671 338.522 204.496 338.637 204.298C338.753 204.1 338.819 203.883 338.832 203.661C338.832 203.384 338.696 203.268 338.449 203.392C338.283 203.474 338.154 203.603 338.084 203.756C338.149 203.813 338.188 203.888 338.195 203.968C338.191 204.05 338.167 204.13 338.123 204.204C338.079 204.277 338.016 204.34 337.94 204.39C337.744 204.485 337.676 204.39 337.676 204.179C337.701 203.938 337.79 203.705 337.938 203.499C338.085 203.293 338.287 203.119 338.526 202.991C338.993 202.758 339.308 202.874 339.308 203.37C339.289 203.753 339.128 204.12 338.849 204.419C339.163 204.376 339.435 204.419 339.435 204.951C339.392 205.403 339.22 205.839 338.934 206.22C338.648 206.602 338.257 206.917 337.795 207.138L337.77 206.846Z" fill="#455A64"/>
<path d="M339.8 203.88C339.762 203.492 339.839 203.101 340.024 202.746C340.21 202.39 340.499 202.08 340.862 201.847C341.406 201.57 341.924 201.65 341.924 202.736C341.972 203.135 341.897 203.538 341.708 203.904C341.519 204.271 341.221 204.589 340.845 204.828C340.166 205.163 339.8 204.798 339.8 203.88ZM341.406 203.02C341.406 202.189 341.185 202.044 340.871 202.197C340.556 202.35 340.31 202.874 340.31 203.596C340.31 204.317 340.514 204.638 340.854 204.47C341.194 204.303 341.406 203.836 341.406 203.02Z" fill="#455A64"/>
<path d="M342.935 202.051L344.031 201.511V201.97L342.935 202.51V202.051Z" fill="#455A64"/>
<path d="M283.718 96.8345V104.071V113.597C286.946 109.858 288.153 106.681 288.153 104.071C288.18 102.643 287.788 101.231 287.013 99.9668C286.238 98.7022 285.105 97.625 283.718 96.8345Z" fill="#F0F0F0"/>
<path d="M283.718 96.8345V104.071V113.597C286.946 109.858 288.153 106.681 288.153 104.071C288.18 102.643 287.788 101.231 287.013 99.9668C286.238 98.7022 285.105 97.625 283.718 96.8345Z" fill="#E0E0E0"/>
<path d="M283.582 96.769C287.133 98.5619 286.343 105.609 277.192 110.179L203.276 147.056L189.971 140.431L280.88 95.3916L283.582 96.769Z" fill="#E0E0E0"/>
<path d="M189.971 140.46L203.285 147.056V279.988L189.971 273.393V140.46Z" fill="#E0E0E0"/>
<path opacity="0.15" d="M189.971 140.46L203.285 147.056V279.988L189.971 273.393V140.46Z" fill="black"/>
<path d="M277.175 110.171L273.871 111.826L203.259 147.056V279.988L277.175 243.104C283.887 239.759 285.502 236.836 285.527 234.227V99.7424C285.488 103.863 282.704 107.339 277.175 110.171Z" fill="#F0F0F0"/>
<g opacity="0.1">
<path opacity="0.1" d="M210.727 155.882L273.888 124.58L277.201 122.926V120.521L273.888 122.175L210.727 153.477V155.882Z" fill="black"/>
<path opacity="0.1" d="M210.727 161.661L273.888 130.359L277.201 128.705V126.3L273.888 127.954L210.727 159.249V161.661Z" fill="black"/>
<path opacity="0.1" d="M210.727 167.44L273.888 136.138L277.201 134.484V132.079L273.888 133.733L210.727 165.028V167.44Z" fill="black"/>
<path opacity="0.1" d="M210.727 173.22L273.888 141.918L277.201 140.263V137.858L273.888 139.513L210.727 170.807V173.22Z" fill="black"/>
<path opacity="0.1" d="M210.727 178.999L273.888 147.697L277.201 146.043V143.638L273.888 145.285L210.727 176.587V178.999Z" fill="black"/>
<path opacity="0.1" d="M210.727 184.778L273.888 153.477L277.201 151.822V149.41L273.888 151.064L210.727 182.366V184.778Z" fill="black"/>
<path opacity="0.1" d="M210.727 190.55L273.888 159.256L277.201 157.602V155.189L273.888 156.844L210.727 188.145V190.55Z" fill="black"/>
<path opacity="0.1" d="M210.727 196.33L273.888 165.035L277.201 163.381V160.969L273.888 162.623L210.727 193.925V196.33Z" fill="black"/>
<path opacity="0.1" d="M210.727 202.109L273.888 170.814L277.201 169.16V166.748L273.888 168.402L210.727 199.704V202.109Z" fill="black"/>
<path opacity="0.1" d="M210.727 207.888L273.888 176.594L277.201 174.94V172.527L273.888 174.182L210.727 205.483V207.888Z" fill="black"/>
<path opacity="0.1" d="M210.727 213.668L273.888 182.373L277.201 180.712V178.307L273.888 179.961L210.727 211.263V213.668Z" fill="black"/>
<path opacity="0.1" d="M210.727 219.447L273.888 188.153L277.201 186.491V184.086L273.888 185.74L210.727 217.042V219.447Z" fill="black"/>
<path opacity="0.1" d="M210.727 225.226L273.888 193.925L277.201 192.27V189.865L273.888 191.52L210.727 222.821V225.226Z" fill="black"/>
<path opacity="0.1" d="M210.727 231.006L273.888 199.704L277.201 198.05V195.645L273.888 197.299L210.727 228.601V231.006Z" fill="black"/>
<path opacity="0.1" d="M210.727 236.785L273.888 205.483L277.201 203.829V201.424L273.888 203.078L210.727 234.38V236.785Z" fill="black"/>
<path opacity="0.1" d="M210.727 242.565L273.888 211.263L277.201 209.608V207.203L273.888 208.858L210.727 240.152V242.565Z" fill="black"/>
<path opacity="0.1" d="M210.727 248.344L273.888 217.042L277.201 215.388V212.983L273.888 214.637L210.727 245.932V248.344Z" fill="black"/>
<path opacity="0.1" d="M210.727 254.123L273.888 222.821L277.201 221.167V218.762L273.888 220.416L210.727 251.711V254.123Z" fill="black"/>
<path opacity="0.1" d="M210.727 259.903L273.888 228.601L277.201 226.946V224.541L273.888 226.196L210.727 257.49V259.903Z" fill="black"/>
</g>
<path opacity="0.15" d="M199.691 145.263L226.301 131.795L198.824 144.804L199.691 145.263ZM194.474 142.683L249.376 115.966L193.582 142.202L194.474 142.683Z" fill="black"/>
<path opacity="0.15" d="M198.824 144.804V180.967L199.674 145.256L198.824 144.804ZM194.024 167.061L194.474 142.654L193.625 142.202L194.024 167.061Z" fill="black"/>
<path d="M272.97 98.2775C272.869 98.2348 272.783 98.171 272.719 98.092C272.655 98.013 272.616 97.9213 272.604 97.8256V99.5383L275.476 98.1609C275.099 98.3488 274.675 98.4573 274.239 98.4776C273.804 98.4979 273.369 98.4293 272.97 98.2775ZM285.714 93.0375L285.79 93.001L279.614 96.0547L285.714 93.0375ZM285.79 93.001L286.394 92.6949V92.2722C286.373 92.4255 286.308 92.572 286.206 92.699C286.104 92.826 285.967 92.9297 285.807 93.001H285.79Z" fill="#263238"/>
<path d="M285.731 93.0595L275.476 98.1611C275.105 98.3507 274.688 98.4633 274.257 98.4899C273.826 98.5165 273.394 98.4563 272.995 98.3141C272.392 98.0153 272.537 97.4614 273.301 97.0824L283.59 91.9809C283.962 91.7928 284.379 91.6812 284.809 91.6546C285.24 91.6281 285.672 91.6873 286.071 91.8278C286.64 92.0975 286.521 92.6514 285.731 93.0595Z" fill="#455A64"/>
<path d="M225.349 149.811C227.193 148.878 240.846 141.925 254.346 134.295C267.847 126.664 276.972 120.739 281.092 116.906C282.157 115.923 283.155 114.889 284.083 113.808C285.637 112.08 286.875 110.158 287.753 108.109V235.903V236.224C287.753 239.934 285.374 244.117 280.786 248.657C270.047 259.283 230.804 279.179 225.307 281.934L225.349 149.811Z" fill="#F5F5F5"/>
<path d="M287.371 109.953V235.466V236.195C287.371 239.839 285.026 243.92 280.506 248.388C270.158 258.627 233.14 277.539 225.774 281.271L225.842 150.022C228.34 148.754 241.568 142.005 254.644 134.601C268.297 126.883 277.328 121.016 281.475 117.161C282.548 116.166 283.558 115.122 284.499 114.034C285.618 112.761 286.588 111.396 287.396 109.96L287.371 109.953ZM288.246 104.079C288.246 106.688 287.04 109.865 283.811 113.604C282.891 114.672 281.901 115.694 280.846 116.665C276.037 121.14 265.103 127.823 254.177 133.996C239.58 142.253 224.992 149.607 224.992 149.607L224.856 282.546C224.856 282.546 269.402 260.42 281.084 248.869C286.564 243.446 288.127 239.227 288.153 236.202V104.072L288.246 104.079Z" fill="#E0E0E0"/>
<path d="M288.22 117.27C288.22 119.69 287.099 122.641 284.108 126.103C283.256 127.091 282.34 128.038 281.364 128.938C278.39 131.7 272.868 135.373 266.581 139.199C263.403 141.131 260.022 143.099 256.632 145.03C248.484 149.636 240.345 153.936 235.145 156.64V154.191C240.345 151.494 248.484 147.187 256.632 142.581C260.03 140.664 263.429 138.697 266.581 136.751C272.902 132.917 278.39 129.251 281.364 126.489C282.338 125.585 283.254 124.636 284.108 123.647C287.099 120.185 288.22 117.234 288.22 114.814V117.27Z" fill="#E0E0E0"/>
<path d="M288.22 122.78C288.22 125.199 287.099 128.151 284.108 131.613C283.256 132.601 282.34 133.548 281.364 134.448C278.39 137.21 272.868 140.883 266.581 144.709C263.403 146.641 260.022 148.608 256.632 150.54C248.484 155.146 240.345 159.445 235.145 162.149V159.701C240.345 157.004 248.484 152.697 256.632 148.091C260.03 146.174 263.429 144.206 266.581 142.26C272.902 138.427 278.39 134.761 281.364 131.999C282.338 131.095 283.254 130.146 284.108 129.157C287.099 125.695 288.22 122.743 288.22 120.324V122.78Z" fill="#E0E0E0"/>
<path d="M288.22 128.289C288.22 130.709 287.099 133.661 284.108 137.122C283.256 138.111 282.34 139.057 281.364 139.957C278.39 142.719 272.868 146.393 266.581 150.219C263.403 152.15 260.022 154.118 256.632 156.049C248.484 160.655 240.345 164.955 235.145 167.659V165.21C240.345 162.514 248.484 158.206 256.632 153.6C260.03 151.684 263.429 149.716 266.581 147.77C272.902 143.937 278.39 140.271 281.364 137.509C282.338 136.604 283.254 135.656 284.108 134.666C287.099 131.204 288.22 128.253 288.22 125.833V128.289Z" fill="#E0E0E0"/>
<path d="M288.22 133.799C288.22 136.219 287.099 139.17 284.108 142.632C283.256 143.62 282.34 144.567 281.364 145.467C278.39 148.229 272.868 151.902 266.581 155.729C263.403 157.66 260.022 159.628 256.632 161.559C248.484 166.165 240.345 170.465 235.145 173.169V170.72C240.345 168.023 248.484 163.716 256.632 159.11C260.03 157.193 263.429 155.226 266.581 153.28C272.902 149.446 278.39 145.78 281.364 143.018C282.338 142.114 283.254 141.165 284.108 140.176C287.099 136.714 288.22 133.763 288.22 131.343V133.799Z" fill="#E0E0E0"/>
<path d="M288.22 139.309C288.22 141.728 287.099 144.68 284.108 148.142C283.256 149.13 282.34 150.077 281.364 150.977C278.39 153.739 272.868 157.412 266.581 161.238C263.403 163.17 260.022 165.137 256.632 167.069C248.484 171.675 240.345 175.982 235.145 178.678V176.215C240.345 173.518 248.484 169.211 256.632 164.605C260.03 162.689 263.429 160.721 266.581 158.775C272.902 154.941 278.39 151.276 281.364 148.513C282.336 147.61 283.252 146.664 284.108 145.678C287.099 142.209 288.22 139.258 288.22 136.838V139.309Z" fill="#E0E0E0"/>
<path d="M288.22 144.804C288.22 147.223 287.099 150.175 284.108 153.637C283.256 154.625 282.34 155.572 281.364 156.472C278.39 159.234 272.868 162.907 266.581 166.733C263.403 168.665 260.022 170.632 256.632 172.564C248.484 177.17 240.345 181.477 235.145 184.173V181.725C240.345 179.028 248.484 174.728 256.632 170.115C260.03 168.198 263.429 166.23 266.581 164.285C272.902 160.451 278.39 156.785 281.364 154.023C282.336 153.12 283.252 152.173 284.108 151.188C287.056 147.719 288.22 144.804 288.22 142.37V144.804Z" fill="#E0E0E0"/>
<path d="M288.22 150.328C288.22 152.748 287.099 155.699 284.108 159.161C283.256 160.149 282.34 161.096 281.364 161.996C278.39 164.758 272.868 168.431 266.581 172.265C263.403 174.189 260.022 176.157 256.632 178.095C248.484 182.701 240.345 187.008 235.145 189.705V187.256C240.345 184.56 248.484 180.26 256.632 175.647C260.03 173.73 263.429 171.762 266.581 169.816C272.902 165.983 278.39 162.317 281.364 159.555C282.336 158.651 283.252 157.705 284.108 156.72C287.099 153.251 288.22 150.299 288.22 147.879V150.328Z" fill="#E0E0E0"/>
<path d="M288.22 155.838C288.22 158.258 287.099 161.209 284.108 164.671C283.256 165.659 282.34 166.606 281.364 167.506C278.39 170.268 272.868 173.941 266.581 177.775C263.403 179.699 260.022 181.666 256.632 183.605C248.484 188.211 240.345 192.518 235.145 195.215V192.766C240.345 190.069 248.484 185.77 256.632 181.156C260.03 179.24 263.429 177.272 266.581 175.326C272.902 171.492 278.39 167.827 281.364 165.064C282.336 164.161 283.252 163.215 284.108 162.229C287.099 158.76 288.22 155.809 288.22 153.389V155.838Z" fill="#E0E0E0"/>
<path d="M284.066 167.739C283.209 168.724 282.293 169.671 281.322 170.574C276.853 174.728 266.717 180.923 256.589 186.644C248.442 191.257 240.302 195.557 235.103 198.254V200.702C240.302 198.006 248.442 193.699 256.589 189.093C266.717 183.364 276.853 177.17 281.322 173.015C282.297 172.115 283.214 171.169 284.066 170.18C287.056 166.719 288.178 163.767 288.178 161.347V158.899C288.22 161.318 287.056 164.27 284.066 167.739Z" fill="#E0E0E0"/>
<path d="M284.066 173.227C283.209 174.212 282.293 175.159 281.322 176.062C276.853 180.216 266.717 186.411 256.589 192.132C248.442 196.745 240.302 201.045 235.103 203.742V206.19C240.302 203.494 248.442 199.187 256.589 194.581C266.717 188.852 276.853 182.657 281.322 178.511C282.295 177.606 283.212 176.658 284.066 175.668C287.056 172.207 288.178 169.255 288.178 166.835V164.408C288.22 166.828 287.056 169.78 284.066 173.227Z" fill="#E0E0E0"/>
<path d="M284.066 178.759C283.209 179.744 282.293 180.69 281.322 181.594C276.853 185.748 266.717 191.942 256.589 197.627C248.442 202.24 240.302 206.54 235.103 209.237V211.686C240.302 208.989 248.442 204.682 256.589 200.076C266.717 194.347 276.853 188.153 281.322 184.006C282.295 183.102 283.212 182.153 284.066 181.164C287.056 177.702 288.178 174.75 288.178 172.331V169.882C288.22 172.338 287.056 175.297 284.066 178.759Z" fill="#E0E0E0"/>
<path opacity="0.07" d="M242.681 273.261C256.453 265.828 274.304 255.566 281.084 248.861C286.564 243.439 288.127 239.219 288.152 236.195V104.072C288.152 106.681 286.946 109.858 283.717 113.597C283.717 113.597 285.34 188.306 277.133 221.087C268.926 253.868 242.681 273.261 242.681 273.261Z" fill="black"/>
<path opacity="0.2" d="M361.729 56.2551L349.01 62.5519L362.723 69.3443V94.6043L369.868 84.7219L375.442 88.344V63.0402L361.729 56.2551Z" fill="black"/>
<path d="M363.292 55.4536L377.005 62.2387V89.6851L371.431 86.0703L364.286 95.9455V68.5428L350.573 61.7504L363.292 55.4536Z" fill="#80C4D3"/>
<path opacity="0.25" d="M363.292 55.4536L350.573 61.7504L364.286 68.5428L377.005 62.2387L363.292 55.4536Z" fill="white"/>
<path d="M439.249 189.524C458.774 189.524 474.601 181.992 474.601 172.701C474.601 163.409 458.774 155.877 439.249 155.877C419.725 155.877 403.897 163.409 403.897 172.701C403.897 181.992 419.725 189.524 439.249 189.524Z" fill="#E6E6E6"/>
<path d="M74.5041 287.943C92.4042 287.943 106.915 281.036 106.915 272.517C106.915 263.997 92.4042 257.091 74.5041 257.091C56.6041 257.091 42.0933 263.997 42.0933 272.517C42.0933 281.036 56.6041 287.943 74.5041 287.943Z" fill="#E6E6E6"/>
<path d="M315.141 317.601C333.767 317.601 348.867 310.411 348.867 301.542C348.867 292.673 333.767 285.483 315.141 285.483C296.515 285.483 281.415 292.673 281.415 301.542C281.415 310.411 296.515 317.601 315.141 317.601Z" fill="#E6E6E6"/>
<path d="M147.742 240.757C166.369 240.757 181.468 233.567 181.468 224.698C181.468 215.829 166.369 208.639 147.742 208.639C129.116 208.639 114.016 215.829 114.016 224.698C114.016 233.567 129.116 240.757 147.742 240.757Z" fill="#E6E6E6"/>
<path d="M465.467 52.8855L470.118 61.3985L462.885 67.5953L456.25 57.1002L465.467 52.8855Z" fill="#F28F8F"/>
<path d="M448.012 33.9133C452.627 33.9133 457.708 35.6327 459.454 39.2504L466.627 54.1034C466.627 54.1034 462.55 60.0733 456.082 59.6435L448.012 33.9133Z" fill="#02897A"/>
<path d="M465.108 62.7239C466.459 60.2166 466.794 60.0972 467.595 59.5479C468.396 58.9987 473.322 58.2704 475.366 58.0913C477.757 57.8883 478.63 58.3301 477.96 60.3957C476.119 65.6053 473.864 70.6599 471.218 75.5114C470.572 76.3591 470.452 77.1471 467.739 77.4217C465.216 77.6605 462.048 77.8038 461.115 77.8516C460.183 77.8993 458.892 78.1501 459.717 75.4039C460.784 72.3018 462.021 69.2605 463.423 66.2939C464.463 64.0134 465.108 62.7239 465.108 62.7239Z" fill="#37474F"/>
<path d="M411.238 147.197C410.042 146.6 409.361 148.057 408.321 149.227C407.427 150.087 406.73 151.13 406.276 152.284C406.025 153.657 407.28 155.865 408.667 157.059C410.054 158.253 411.656 159.125 412.158 161.752C412.288 162.957 412.756 164.101 413.509 165.052C414.262 166.003 415.27 166.721 416.414 167.125C419.403 168.414 423.408 167.996 424.783 167.125C426.385 166.086 424.915 164.94 422.667 161.716C419.726 157.513 417.431 154.552 417.431 150.576L411.238 147.197Z" fill="#263238"/>
<path d="M413.593 143.747L411.202 147.329C410.686 148.061 410.482 148.967 410.634 149.849C410.787 150.731 411.283 151.516 412.015 152.033L412.087 152.093C412.822 152.529 413.687 152.694 414.531 152.561C415.376 152.428 416.148 152.005 416.713 151.364L420.491 147.257L413.593 143.747Z" fill="#FFA8A7"/>
<path d="M457.995 74.6873C458.15 79.2005 456.871 97.4325 453.751 105.492C450.631 113.551 448.825 118.566 447.845 120.249C446.865 121.933 418.578 149.418 418.578 149.418C418.578 149.418 413.796 149.072 413.019 144.427C413.019 144.427 424.604 124.751 427.114 120.715C429.625 116.679 438.52 110.495 438.52 110.495L437.707 75.2007L457.995 74.6873Z" fill="#37474F"/>
<path d="M416.092 70.2935C416.092 69.5174 418.483 60.5985 419.678 56.4792L428.441 59.4881L426.385 65.9833L418.674 73.9471C417.857 73.7845 417.133 73.3148 416.653 72.6349C416.172 71.9551 415.971 71.117 416.092 70.2935Z" fill="#FFA8A7"/>
<path d="M451.763 170.739L457.744 169.381L455.764 160.684L449.783 162.042L451.763 170.739Z" fill="#FFA8A7"/>
<path d="M457.995 74.6875H429.302C428.675 78.8711 428.316 83.0904 428.226 87.3197C427.999 99.7371 439.572 122.291 439.572 122.291C439.017 127.309 439.267 132.384 440.313 137.323C442.848 147.209 449.758 163.961 449.758 163.961C449.758 163.961 454.098 164.57 456.238 162.074C456.238 162.074 452.412 128.082 451.384 119.378C450.272 109.946 447.403 92.7404 447.403 92.7404C449.296 90.8556 451.013 88.8013 452.531 86.6033C455.193 83.0645 457.053 78.9907 457.983 74.6636" fill="#37474F"/>
<path d="M438.544 34.1638C433.044 35.4891 425.548 37.2084 423.384 43.1544C421.22 49.1004 418.1 59.6432 418.1 59.6432C419.296 61.7326 425.931 63.4639 428.238 62.258L429.314 58.6761V74.6515C433.618 79.3318 448.61 81.5049 458.007 74.6515V44.8021C458.007 40.0262 455.353 34.2951 448.024 33.8772L438.544 34.1638Z" fill="#02897A"/>
<path d="M429.314 58.7119L432.076 50.0317L429.314 62.5924V58.7119Z" fill="#E0E0E0"/>
<path d="M436.475 9.77087C435.982 9.71605 435.483 9.7735 435.015 9.93892C434.547 10.1043 434.122 10.3734 433.774 10.726C432.578 11.92 432.853 14.105 433.774 19.1555L437.36 19.5615L436.475 9.77087Z" fill="#263238"/>
<path d="M457.409 8.31426C458.163 8.32215 458.911 8.18009 459.609 7.89636C460.709 7.26355 460.996 8.51722 460.386 9.60374C459.988 10.3823 459.396 11.0459 458.668 11.5308C457.939 12.0158 457.098 12.3061 456.226 12.3738C456.226 12.2185 455.197 9.56792 455.197 9.56792L457.409 8.31426Z" fill="#263238"/>
<path d="M438.161 19.5618C437.635 19.8841 436.87 18.8573 436.212 18.1767C435.955 17.8801 435.626 17.654 435.257 17.5198C434.888 17.3856 434.49 17.3479 434.102 17.41C433.715 17.4722 433.349 17.6323 433.04 17.8751C432.732 18.118 432.49 18.4355 432.339 18.7976C431.251 21.09 433.726 24.1466 435.184 25.1495C435.588 25.5027 436.095 25.7185 436.63 25.7657C437.165 25.8129 437.701 25.6891 438.161 25.4122L438.544 34.1879C439.188 35.5936 440.17 36.8185 441.403 37.7538C442.636 38.689 444.08 39.3057 445.609 39.5489C450.774 40.2414 449.71 35.967 448 33.9133V30.7254C449.293 30.998 450.621 31.0625 451.934 30.9164C452.603 30.7374 454.205 28.8031 455.245 26.6301C457.451 22.2791 457.941 17.2599 456.62 12.5651C454.767 4.70871 446.315 4.46991 441.281 7.63394C436.248 10.798 438.161 19.5618 438.161 19.5618Z" fill="#FFA8A7"/>
<path d="M438.161 20.457C437.898 20.457 436.882 18.7735 436.212 18.1765C435.292 17.3408 436.475 9.81872 436.475 9.81872C436.221 9.01023 436.17 8.15182 436.327 7.31902C436.483 6.48622 436.842 5.70455 437.372 5.04282C439.189 3.13246 442.704 3.45484 445.274 3.37127C448.437 3.38367 451.569 2.75404 454.48 1.5206C458.138 -0.0673859 458.413 -0.246481 458.856 1.35344C459.209 2.67564 459.253 4.0614 458.983 5.40319C458.714 6.74497 458.138 8.00668 457.301 9.0904L456.106 11.0246C456.106 11.0246 454.994 11.9559 451.587 12.3738C448.18 12.7917 442.369 10.953 441.64 10.8575C440.648 10.7261 440.444 11.6813 439.906 14.2961C439.452 16.5527 439.07 20.4451 438.161 20.457Z" fill="#263238"/>
<path d="M436.487 10.3679L433.259 8.63659C433.363 8.42608 433.506 8.238 433.683 8.08316C433.859 7.92832 434.064 7.80978 434.286 7.73433C434.508 7.65889 434.743 7.62804 434.977 7.64355C435.211 7.65905 435.44 7.72061 435.65 7.8247C436.094 8.05681 436.429 8.45214 436.585 8.92688C436.741 9.40163 436.706 9.91848 436.487 10.3679Z" fill="#263238"/>
<path d="M448 30.7254C445.801 30.3042 443.644 29.6848 441.556 28.8747C440.579 28.359 439.776 27.5654 439.249 26.5942C439.501 27.5692 439.949 28.483 440.564 29.2807C441.76 30.8448 448 31.991 448 31.991V30.7254Z" fill="#F28F8F"/>
<path d="M448.156 19.3946C448.159 19.6522 448.06 19.9007 447.881 20.0862C447.702 20.2717 447.457 20.3793 447.199 20.3856C447.071 20.3825 446.944 20.3541 446.826 20.302C446.708 20.2499 446.602 20.1751 446.513 20.082C446.424 19.9888 446.355 19.8791 446.308 19.7591C446.262 19.6391 446.24 19.5112 446.243 19.3826C446.24 19.125 446.338 18.8764 446.517 18.6909C446.696 18.5054 446.941 18.3979 447.199 18.3916C447.328 18.3947 447.455 18.4231 447.573 18.4752C447.69 18.5273 447.797 18.602 447.886 18.6952C447.974 18.7883 448.044 18.898 448.09 19.018C448.137 19.138 448.159 19.266 448.156 19.3946Z" fill="#263238"/>
<path d="M447.139 15.7767L445.095 16.9706C445.017 16.8322 444.968 16.6797 444.95 16.5221C444.932 16.3645 444.946 16.2048 444.991 16.0526C445.035 15.9003 445.11 15.7584 445.21 15.6351C445.31 15.5119 445.433 15.4098 445.573 15.3349C445.842 15.1975 446.153 15.1666 446.443 15.2486C446.734 15.3305 446.982 15.5192 447.139 15.7767Z" fill="#263238"/>
<path d="M447.57 25.8059L449.758 26.6298C449.65 26.9162 449.436 27.1502 449.16 27.2835C448.884 27.4168 448.567 27.4392 448.275 27.3461C448.127 27.2917 447.992 27.2085 447.876 27.1015C447.761 26.9945 447.667 26.8657 447.602 26.7225C447.536 26.5794 447.5 26.4247 447.494 26.2674C447.489 26.1101 447.515 25.9533 447.57 25.8059Z" fill="#F28F8F"/>
<path d="M456.692 16.5765L454.827 15.1438C455.014 14.902 455.287 14.7413 455.59 14.6947C455.892 14.648 456.201 14.719 456.453 14.893C456.58 14.9872 456.687 15.1057 456.768 15.2416C456.85 15.3775 456.903 15.5282 456.925 15.6848C456.947 15.8415 456.938 16.001 456.898 16.154C456.858 16.3071 456.788 16.4507 456.692 16.5765Z" fill="#263238"/>
<path d="M456.118 19.1199C456.121 19.3775 456.023 19.6261 455.844 19.8116C455.665 19.9971 455.419 20.1046 455.162 20.1109C455.033 20.1078 454.906 20.0794 454.788 20.0273C454.67 19.9752 454.564 19.9005 454.475 19.8073C454.386 19.7142 454.317 19.6045 454.271 19.4845C454.224 19.3645 454.202 19.2365 454.205 19.1079C454.202 18.8503 454.3 18.6018 454.48 18.4163C454.659 18.2308 454.904 18.1232 455.162 18.1169C455.421 18.1263 455.666 18.2364 455.844 18.4239C456.023 18.6113 456.121 18.8611 456.118 19.1199Z" fill="#263238"/>
<path d="M451.611 19.0005L450.714 24.6838L453.858 24.3137L451.611 19.0005Z" fill="#F28F8F"/>
<path d="M457.062 166.48L456.871 165.62C457.493 165.74 460.183 170.193 462.849 172.128C465.766 174.241 468.288 175.495 469.592 176.45C471.337 177.727 468.814 180.342 464.522 180.581C462.394 180.688 458.545 180.044 457.349 178.909C456.154 177.775 455.293 175.9 454.337 175.089C453.38 174.277 451.479 173.56 450.822 172.522C450.47 171.49 450.343 170.394 450.451 169.31C450.451 168.187 450.535 166.922 450.917 166.981L451.061 167.626C452.169 168.191 453.403 168.467 454.647 168.426C455.687 168.378 457.564 168.152 457.062 166.48Z" fill="#263238"/>
<path d="M450.642 113.599C450.642 113.599 448.096 95.5341 447.414 92.7402C449.46 91.6245 451.363 90.2654 453.081 88.6926C451.896 90.3862 450.602 92.0014 449.208 93.5282L450.642 113.599Z" fill="#263238"/>
<path d="M435.28 112.966C435.28 112.966 438.34 120.572 439.584 122.255C439.584 122.255 439.273 128.058 439.309 129.228L437.707 130.625C437.665 128 437.905 125.378 438.424 122.804C437.019 119.65 435.964 116.351 435.28 112.966Z" fill="#263238"/>
<path d="M426.421 65.9836C426.421 65.9836 450.535 68.5626 453.368 67.691C456.202 66.8194 460.003 64.0136 462 62.8196C463.996 61.6256 465.515 61.554 465.515 62.0435C465.515 62.5331 463.769 65.1956 463.375 66.306C462.98 67.4164 465.252 67.4164 468.253 66.7239C471.253 66.0314 472.449 64.3359 473.226 65.315C474.003 66.2941 471.564 71.2849 466.591 73.1594C461.617 75.034 457.923 73.7803 453.811 73.9594C449.698 74.1385 424.365 75.7503 418.662 73.9594C418.511 73.0465 418.615 72.1098 418.963 71.2524C419.312 70.395 419.89 69.6501 420.635 69.0999C422.358 67.7187 424.319 66.6627 426.421 65.9836Z" fill="#FFA8A7"/>
<path d="M292.737 181.022C292.796 180.246 294.267 171.888 295.271 167.208L305.11 170.217L303.532 176.772L295.355 184.676C294.531 184.521 293.799 184.055 293.311 183.374C292.823 182.693 292.617 181.851 292.737 181.022Z" fill="#FFA8A7"/>
<path d="M314.304 110.268H319.086C322.615 110.268 326 111.668 328.495 114.16C330.99 116.652 332.392 120.032 332.392 123.557V157.418H300.998V123.557C300.998 120.032 302.399 116.652 304.895 114.16C307.39 111.668 310.775 110.268 314.304 110.268Z" fill="#263238"/>
<path d="M340.331 163.459L344.981 171.972L337.736 178.157L331.113 167.662L340.331 163.459Z" fill="#F28F8F"/>
<path d="M322.876 144.475C327.491 144.475 332.572 146.194 334.317 149.812L341.49 164.665C341.49 164.665 337.414 170.635 330.946 170.217L322.876 144.475Z" fill="#455A64"/>
<path d="M326.606 291.776C328.194 293.897 329.979 295.864 331.938 297.65C332.252 297.902 332.502 298.225 332.667 298.593C332.871 299.214 333.134 300.706 330.372 301.315C328.972 301.622 327.522 301.624 326.122 301.321C324.721 301.018 323.402 300.418 322.254 299.56C320.234 297.936 320.473 295.083 318.608 293.208C317.221 291.835 315.344 291.298 314.304 289.626C313.575 288.432 313.969 287.012 314.627 285.256C315.284 283.501 315.75 281.901 316.384 282.128L316.169 283.012C316.826 284.409 320.951 285.292 322.971 284.624C324.059 287.069 325.272 289.456 326.606 291.776Z" fill="#263238"/>
<path d="M328.232 293.829C327.67 293.172 327.12 292.504 326.606 291.775C325.549 290.017 324.602 288.195 323.773 286.319C323.234 285.201 323.14 283.921 323.51 282.737L324.872 278.14L317.699 276.493L316.145 282.928C315.81 284.397 316.874 285.853 318.823 287.979C320.772 290.104 323.019 294.784 324.801 296.11C326.582 297.435 328.041 297.566 328.949 297.113C329.858 296.659 330.085 296.241 328.232 293.829Z" fill="#FFA8A7"/>
<path d="M307.31 295.823V294.808C307.716 296.002 309.558 301.088 312.355 303.644C314.591 305.661 317.627 308.013 318.393 310.27C319.158 312.527 314.172 313.41 312.092 313.04C309.316 312.575 306.771 311.212 304.847 309.16C303.652 307.691 302.887 305.948 302.026 304.79C301.165 303.632 299.204 302.402 298.75 301.017C298.606 299.769 298.741 298.505 299.145 297.315C299.479 296.121 299.826 294.701 300.256 294.808V295.644C301.28 296.44 302.546 296.862 303.843 296.838C304.823 296.838 307.322 296.611 307.31 295.823Z" fill="#263238"/>
<path d="M314.376 305.423L312.355 303.632C310.481 301.649 309.019 299.316 308.051 296.767C307.562 295.59 307.31 294.328 307.31 293.053V289.03H300.256V295.573V295.752C300.591 297.22 303.843 301.113 305.672 303.656C307.172 305.841 309.459 307.364 312.056 307.906C314.746 308.264 316.145 307.429 314.376 305.423Z" fill="#FFA8A7"/>
<path d="M301.655 186.264C296.192 198.204 301.859 240.243 301.859 240.243C301.691 242.19 299.467 245.998 298.654 254.571C297.674 264.648 300.185 289.937 300.185 289.937C301.265 290.57 302.484 290.927 303.735 290.977C304.987 291.027 306.231 290.768 307.358 290.223C307.358 290.223 314.089 252.123 315.356 242.106L319.397 209.964L325.375 241.33C323.775 243.788 322.452 246.415 321.429 249.162C320.007 253.592 317.125 278.833 317.125 278.833C318.098 279.72 319.26 280.374 320.524 280.745C321.788 281.115 323.12 281.192 324.418 280.97C324.418 280.97 338.227 246.345 338.848 239.276C339.219 235.038 333.026 184.568 333.026 184.568L301.655 186.264Z" fill="#37474F"/>
<path d="M319.349 209.917L320.306 203.016C320.306 203.016 327.825 201.463 331.233 198.24C328.88 200.994 325.803 203.037 322.35 204.138L321.346 210.8L322.541 226.238L319.349 209.917Z" fill="#263238"/>
<path d="M311.363 144.797C309.35 145.286 307.472 146.22 305.869 147.53C304.265 148.84 302.976 150.493 302.098 152.367C300.807 155.216 300.687 158.457 301.763 161.393L306.581 175.518C306.581 175.518 304.297 181.046 301.631 186.264C313.909 193.105 329.224 189.512 332.918 184.521C333.074 183.458 332.859 178.682 333.157 173.262C333.468 167.471 334.269 160.928 333.361 157.358C331.663 150.707 328.495 144.475 322.194 144.475L311.363 144.797Z" fill="#F03E3D"/>
<path d="M309.486 144.797C305.302 145.382 299.157 146.23 297.029 156.164C294.9 166.098 294.267 169.739 294.267 169.739C295.631 171.077 297.257 172.119 299.042 172.801C300.828 173.483 302.734 173.79 304.644 173.703L306.808 166.062L309.486 144.797Z" fill="#455A64"/>
<path d="M311.865 153.179C311.143 153.179 310.428 153.037 309.76 152.761C309.093 152.485 308.487 152.081 307.976 151.571C307.466 151.061 307.06 150.455 306.784 149.789C306.508 149.122 306.365 148.408 306.365 147.687V131.7H311.865V153.179Z" fill="#263238"/>
<path d="M327.24 116.607C328.901 117.586 330.946 121.753 330.743 130.481C330.575 137.884 328.172 139.723 326.965 140.248C325.757 140.773 323.438 140.451 321.178 140.069V144.511C321.178 144.511 324.299 148.093 324.107 150.182C323.916 152.271 319.588 152.701 316.659 150.707C314.773 149.341 313.152 147.641 311.877 145.693V134.947C311.639 135.238 311.345 135.479 311.013 135.656C310.681 135.833 310.317 135.943 309.942 135.978C309.568 136.014 309.19 135.975 308.83 135.863C308.471 135.752 308.137 135.57 307.848 135.329C305.349 133.669 305.254 129.574 306.712 128.165C308.171 126.756 311.291 127.162 311.877 129.192C314.832 129.062 317.708 128.201 320.246 126.685C322.127 125.678 323.743 124.24 324.959 122.488C326.175 120.736 326.956 118.72 327.24 116.607Z" fill="#FFA8A7"/>
<path d="M322.469 128.631C322.471 128.814 322.42 128.993 322.321 129.146C322.222 129.3 322.08 129.421 321.912 129.494C321.745 129.568 321.559 129.59 321.379 129.56C321.199 129.529 321.032 129.446 320.899 129.321C320.765 129.196 320.672 129.034 320.63 128.857C320.587 128.679 320.598 128.493 320.661 128.321C320.724 128.15 320.836 128.001 320.983 127.892C321.131 127.784 321.306 127.721 321.489 127.712C321.614 127.707 321.739 127.727 321.856 127.771C321.973 127.814 322.08 127.881 322.172 127.967C322.263 128.052 322.336 128.155 322.387 128.269C322.438 128.383 322.466 128.506 322.469 128.631Z" fill="#263238"/>
<path d="M322.72 134.899L324.884 135.592C324.846 135.737 324.778 135.873 324.686 135.992C324.593 136.111 324.477 136.209 324.345 136.282C324.214 136.354 324.068 136.399 323.918 136.414C323.769 136.429 323.617 136.413 323.474 136.368C323.183 136.267 322.942 136.058 322.802 135.784C322.662 135.511 322.633 135.194 322.72 134.899Z" fill="#F28F8F"/>
<path d="M330.109 125.765L328.232 124.464C328.311 124.337 328.415 124.227 328.537 124.141C328.66 124.056 328.799 123.996 328.945 123.966C329.092 123.936 329.243 123.936 329.39 123.966C329.537 123.996 329.675 124.056 329.798 124.142C330.05 124.32 330.223 124.588 330.28 124.891C330.338 125.194 330.277 125.507 330.109 125.765Z" fill="#263238"/>
<path d="M329.678 127.95C329.695 128.202 329.611 128.45 329.445 128.64C329.28 128.83 329.045 128.947 328.794 128.965C328.543 128.969 328.301 128.875 328.118 128.703C327.935 128.532 327.826 128.296 327.813 128.046C327.807 127.924 327.825 127.801 327.866 127.686C327.907 127.571 327.971 127.464 328.053 127.373C328.135 127.283 328.234 127.209 328.345 127.156C328.456 127.103 328.576 127.073 328.698 127.067C328.821 127.061 328.943 127.079 329.059 127.12C329.174 127.161 329.28 127.224 329.371 127.306C329.462 127.388 329.536 127.487 329.589 127.598C329.642 127.708 329.672 127.828 329.678 127.95Z" fill="#263238"/>
<path d="M325.279 127.425L325.434 133.025L328.387 132.105L325.279 127.425Z" fill="#F28F8F"/>
<path d="M321.178 140.069C318.787 139.759 313.886 138.35 313.12 136.416C313.425 137.397 314.026 138.26 314.842 138.887C316.3 140.141 321.178 141.562 321.178 141.562V140.069Z" fill="#F28F8F"/>
<path d="M339.96 173.285C341.311 170.778 341.646 170.671 342.459 170.121C343.272 169.572 348.185 168.832 350.23 168.653C352.621 168.45 353.494 168.892 352.824 170.969C350.96 176.173 348.69 181.224 346.033 186.073C345.388 186.933 345.256 187.721 342.554 187.983C339.853 188.246 336.852 188.365 335.919 188.425C334.987 188.485 333.696 188.712 334.532 185.965C335.598 182.864 336.832 179.823 338.227 176.855C339.315 174.599 339.96 173.285 339.96 173.285Z" fill="#37474F"/>
<path d="M303.532 176.82C303.532 176.82 325.398 179.124 328.232 178.252C331.065 177.381 334.867 174.551 336.911 173.381C338.956 172.211 340.426 172.115 340.426 172.593C340.426 173.071 338.681 175.757 338.274 176.856C337.868 177.954 340.163 177.966 343.152 177.273C346.141 176.581 347.348 174.885 348.137 175.865C348.926 176.844 346.476 181.834 341.502 183.709C336.529 185.584 332.835 184.342 328.722 184.509C324.609 184.676 301.057 186.515 295.355 184.724C295.204 183.811 295.308 182.874 295.656 182.017C296.004 181.159 296.583 180.415 297.327 179.864C299.171 178.446 301.281 177.411 303.532 176.82Z" fill="#FFA8A7"/>
<path d="M305.11 171.208C306.048 168.67 306.847 166.084 307.501 163.459C307.501 163.459 307.107 169.226 305.481 172.318L305.11 171.208Z" fill="#37474F"/>
<path d="M128.184 100.202L124.298 108.584L131.531 114.769L137.784 104.226L128.184 100.202Z" fill="#F28F8F"/>
<path d="M146.021 81.0271C141.406 81.0271 136.325 82.7584 134.58 86.3642C132.834 89.97 127.406 101.229 127.406 101.229C127.406 101.229 131.483 107.199 137.951 106.769L146.021 81.0271Z" fill="#37474F"/>
<path d="M166.034 214.024H159.65V223.301H166.034V214.024Z" fill="#FFA8A7"/>
<path d="M143.588 202.545L137.208 202.765L137.527 212.036L143.908 211.817L143.588 202.545Z" fill="#FFA8A7"/>
<path d="M165.604 123.449C165.604 129.538 166.393 168.892 166.393 168.892C166.548 170.635 168.186 173.871 167.827 180.593C167.349 189.727 166.56 215.098 166.56 215.098C166.56 215.098 163.571 218.06 159.387 215.098C159.387 215.098 153.6 180.616 152.465 171.566C151.46 163.674 149.775 142.218 149.775 142.218L143.857 167.471C143.857 167.471 144.897 173.441 145.136 177.596C145.375 181.751 144.048 206 144.048 206C143.014 206.645 141.828 207.008 140.61 207.055C139.392 207.101 138.182 206.828 137.102 206.263C137.102 206.263 131.985 170.898 131.328 167.113C130.67 163.328 135.811 123.449 135.811 123.449H165.604Z" fill="#37474F"/>
<path d="M156.004 81.3137H156.099C158.838 82.0014 161.267 83.5846 163.001 85.8112C164.734 88.0377 165.671 90.7794 165.663 93.5997V123.449C161.192 128.309 145.602 130.613 135.775 123.449V92.4057C135.775 87.4507 138.537 81.4808 146.152 81.0391L156.004 81.3137Z" fill="#80C4D3"/>
<path d="M158.156 55.9179C158.668 55.8606 159.188 55.92 159.674 56.0917C160.161 56.2633 160.602 56.5427 160.965 56.9089C162.161 58.1028 161.921 60.4311 160.965 65.6726L157.235 66.1025L158.156 55.9179Z" fill="#263238"/>
<path d="M136.385 54.4612C135.584 54.4634 134.791 54.3051 134.053 53.9956C132.858 53.3389 132.607 54.6403 133.228 55.7626C133.645 56.5729 134.263 57.2629 135.023 57.7667C135.782 58.2705 136.659 58.5712 137.568 58.6401C137.568 58.4849 138.632 55.7388 138.632 55.7388L136.385 54.4612Z" fill="#263238"/>
<path d="M156.398 66.1025C156.96 66.4368 157.749 65.3741 158.43 64.6577C158.697 64.3472 159.04 64.1104 159.425 63.9702C159.81 63.8299 160.225 63.7909 160.629 63.8568C161.034 63.9228 161.415 64.0915 161.735 64.3467C162.056 64.602 162.305 64.9352 162.459 65.3144C163.655 67.7024 161.013 70.8783 159.506 71.9171C159.084 72.2849 158.555 72.5095 157.997 72.5588C157.438 72.6082 156.879 72.4797 156.398 72.1917L156.003 81.3137C155.334 82.7771 154.312 84.0522 153.029 85.0252C151.746 85.9982 150.242 86.6387 148.651 86.8896C143.283 87.6179 144.395 83.2002 146.152 81.0271V77.7079C144.814 77.998 143.437 78.0706 142.075 77.9228C141.37 77.7318 139.684 75.714 138.62 73.4573C137.425 70.9261 135.404 66.4368 137.198 58.8311C139.122 50.6524 147.957 50.4017 153.146 53.6971C158.335 56.9924 156.398 66.1025 156.398 66.1025Z" fill="#FFA8A7"/>
<path d="M156.398 67.0339C156.685 67.0339 157.737 65.2907 158.43 64.646C159.387 63.7744 158.155 55.9061 158.155 55.9061C158.155 55.9061 159.124 52.9331 157.235 50.9511C155.346 48.9691 151.676 49.3034 148.998 49.2079C145.711 49.228 142.456 48.5737 139.433 47.2856C135.632 45.6379 135.345 45.4468 134.878 47.1065C134.51 48.4814 134.463 49.9229 134.743 51.3186C135.023 52.7144 135.622 54.0268 136.492 55.1539L138.381 55.8464C138.381 55.8464 139.398 56.7538 142.948 57.1836C146.223 57.4257 149.512 57.3658 152.776 57.0045C153.804 56.8613 153.971 57.8523 154.581 60.5865C155.059 62.9744 155.466 67.022 156.398 67.0339Z" fill="#263238"/>
<path d="M158.143 56.5386L161.503 54.7357C161.396 54.5102 161.245 54.3087 161.058 54.1435C160.871 53.9783 160.652 53.8528 160.415 53.7746C160.178 53.6964 159.928 53.6672 159.679 53.6888C159.43 53.7103 159.188 53.7821 158.968 53.8999C158.518 54.1502 158.182 54.5636 158.028 55.0547C157.875 55.5458 157.916 56.077 158.143 56.5386Z" fill="#263238"/>
<path d="M146.164 77.708C148.455 77.2782 150.701 76.6346 152.871 75.7857C153.893 75.2506 154.727 74.4177 155.262 73.3977C155.001 74.4113 154.538 75.3616 153.899 76.1916C152.632 77.8154 146.152 79.0094 146.152 79.0094L146.164 77.708Z" fill="#F28F8F"/>
<path d="M147.36 64.8609C147.364 65.0587 147.428 65.2506 147.541 65.4126C147.655 65.5746 147.814 65.6994 147.999 65.7713C148.183 65.8432 148.385 65.8589 148.579 65.8166C148.772 65.7743 148.949 65.6757 149.086 65.5334C149.224 65.391 149.316 65.2112 149.352 65.0166C149.387 64.822 149.364 64.6212 149.286 64.4395C149.207 64.2579 149.077 64.1035 148.911 63.9957C148.744 63.888 148.55 63.8318 148.352 63.8341C148.085 63.8403 147.83 63.9516 147.645 64.1439C147.459 64.3361 147.356 64.5937 147.36 64.8609Z" fill="#263238"/>
<path d="M148.412 61.112L150.552 62.306C150.7 62.0127 150.731 61.6739 150.638 61.3588C150.544 61.0437 150.334 60.776 150.05 60.6105C149.91 60.5339 149.756 60.486 149.597 60.4698C149.438 60.4536 149.278 60.4693 149.125 60.5161C148.972 60.5628 148.83 60.6396 148.708 60.742C148.586 60.8443 148.485 60.9701 148.412 61.112Z" fill="#263238"/>
<path d="M147.431 71.6064L145.16 72.4661C145.21 72.6181 145.289 72.7585 145.394 72.8791C145.5 72.9997 145.628 73.098 145.772 73.1681C145.916 73.2383 146.072 73.2789 146.232 73.2875C146.392 73.2961 146.552 73.2726 146.702 73.2183C147.01 73.098 147.259 72.8619 147.396 72.5607C147.532 72.2595 147.545 71.917 147.431 71.6064Z" fill="#F28F8F"/>
<path d="M138.477 61.9355L140.402 60.4311C140.309 60.3005 140.191 60.1897 140.055 60.1054C139.919 60.0212 139.767 59.9651 139.609 59.9406C139.45 59.9161 139.289 59.9236 139.133 59.9628C138.978 60.0019 138.832 60.0719 138.704 60.1685C138.446 60.3772 138.278 60.6774 138.236 61.0065C138.194 61.3357 138.28 61.6684 138.477 61.9355Z" fill="#263238"/>
<path d="M139.075 64.5863C139.071 64.8534 139.174 65.1111 139.36 65.3033C139.545 65.4955 139.8 65.6069 140.067 65.6131C140.338 65.6069 140.595 65.4943 140.783 65.2998C140.971 65.1053 141.074 64.8447 141.071 64.5744C141.087 64.4343 141.072 64.2925 141.029 64.1584C140.986 64.0242 140.915 63.9006 140.821 63.7957C140.727 63.6907 140.611 63.6068 140.482 63.5493C140.354 63.4919 140.214 63.4622 140.073 63.4622C139.932 63.4622 139.792 63.4919 139.663 63.5493C139.535 63.6068 139.419 63.6907 139.325 63.7957C139.231 63.9006 139.16 64.0242 139.117 64.1584C139.074 64.2925 139.059 64.4343 139.075 64.5744V64.5863Z" fill="#263238"/>
<path d="M144.156 63.6428L143.821 69.6246L140.701 68.562L144.156 63.6428Z" fill="#F28F8F"/>
<path d="M159.65 220.149V219.23C159.04 219.492 157.617 224.901 155.095 227.205C153.074 229.032 150.313 231.158 149.631 233.175C148.95 235.193 153.457 236.471 155.334 236.136C157.522 235.754 161.312 234.214 162.256 232.793C163.201 231.372 163.655 229.271 164.42 228.22C165.185 227.17 166.978 226.011 167.397 224.806C167.52 223.678 167.393 222.536 167.026 221.462C166.727 220.34 166.417 219.075 166.034 219.206C166.034 219.337 166.034 219.898 166.034 219.898C165.126 220.614 163.998 220.993 162.842 220.973C161.921 221.045 159.638 220.865 159.65 220.149Z" fill="#263238"/>
<path d="M137.473 210.06C137.138 210.06 136.863 210.538 136.134 211.326C135.045 212.432 133.776 213.345 132.38 214.024C129.989 215.218 125.35 217.057 123.246 218C121.943 218.597 122.05 220.173 123.353 221.081C124.657 221.988 127.992 222.633 131.925 221.749C134.065 221.272 136.863 219.302 138.62 219.361C140.378 219.421 143.689 219.445 144.993 218.549C146.296 217.654 145.782 215.732 145.411 214.084C145.04 212.436 144.431 209.547 143.833 209.666V210.227C143.068 211.421 139.158 211.863 137.473 211.015V210.06Z" fill="#263238"/>
<path d="M128.937 109.85C127.586 107.33 127.251 107.223 126.438 106.674C125.625 106.124 120.711 105.384 118.667 105.217C116.276 105.014 115.403 105.456 116.073 107.521C117.924 112.727 120.178 117.781 122.816 122.637C123.461 123.485 123.593 124.273 126.295 124.536C128.996 124.798 131.997 124.918 132.93 124.977C133.862 125.037 135.153 125.264 134.317 122.518C133.249 119.418 132.015 116.376 130.622 113.408C129.642 111.151 128.937 109.85 128.937 109.85Z" fill="#37474F"/>
<path d="M177.941 117.42C177.882 116.631 175.55 107.724 174.355 103.605L165.604 106.614L167.66 113.097L175.359 121.061C176.175 120.901 176.899 120.434 177.379 119.756C177.86 119.078 178.061 118.242 177.941 117.42Z" fill="#FFA8A7"/>
<path d="M167.624 113.097C167.624 113.097 143.498 115.676 140.665 114.805C137.831 113.933 134.03 111.103 131.985 109.933C129.941 108.763 128.47 108.668 128.47 109.157C128.47 109.647 130.216 112.309 130.622 113.408C131.029 114.506 128.733 114.518 125.745 113.826C122.756 113.133 121.548 111.438 120.759 112.417C119.97 113.396 122.421 118.386 127.394 120.261C132.368 122.136 136.062 120.894 140.175 121.061C144.287 121.228 169.621 122.852 175.323 121.061C175.475 120.15 175.37 119.215 175.022 118.359C174.674 117.504 174.095 116.761 173.351 116.213C171.643 114.842 169.704 113.787 167.624 113.097Z" fill="#FFA8A7"/>
<path d="M158.024 81.9941C161.814 83.2478 169.334 83.8806 171.761 92.0713C174.188 100.262 175.407 105.575 175.407 105.575C173.972 107.486 168.234 109.694 165.604 108.871L158.024 81.9941Z" fill="#455A64"/>
<path d="M165.604 108.871L163.009 99.677L165.604 112.62V108.871Z" fill="#37474F"/>
<g opacity="0.3">
<path opacity="0.3" d="M101.632 139.958L89.3956 138.222C89.3333 138.213 89.2777 138.192 89.234 138.159C89.1902 138.127 89.1598 138.085 89.1456 138.037C89.1314 137.99 89.1338 137.938 89.1526 137.887C89.1715 137.836 89.2061 137.787 89.2533 137.746L99.1778 129.493L101.632 139.958Z" fill="black"/>
</g>
<path d="M89.9059 138.07L101.492 139.648L100.89 138.546L97.0205 131.473L89.8383 136.685L89.9059 138.07Z" fill="#EBEBEB"/>
<path d="M110.115 132.573L101.631 139.958L95.2968 129.285C95.1954 129.115 95.1703 128.916 95.2247 128.715C95.2791 128.514 95.4105 128.32 95.6008 128.16L108.587 117.197C108.679 117.119 108.791 117.056 108.913 117.015C109.035 116.974 109.163 116.955 109.286 116.959C109.41 116.964 109.525 116.992 109.622 117.041C109.719 117.091 109.795 117.16 109.844 117.243L115.687 127.308L110.115 132.573Z" fill="#FF725E"/>
<path d="M89.7503 135.301L101.053 138.9L95.917 130.308L89.7503 135.301Z" fill="#EBEBEB"/>
<path d="M95.9174 130.308C95.8709 130.332 95.8282 130.36 95.7904 130.392L95.4525 130.648L94.1776 131.648C93.0736 132.535 91.5282 133.771 89.6775 135.249L89.5634 135.342L89.6965 135.383L97.0395 137.736L100.99 138.988L101.098 138.805C97.8652 138.183 95.0649 137.64 93.044 137.249L90.6911 136.817L90.0614 136.711C89.9894 136.695 89.9144 136.685 89.8374 136.681C89.8374 136.681 89.9032 136.708 90.0448 136.743L90.6626 136.88L92.9801 137.369L101.002 138.992L101.115 138.808L97.1725 137.549L89.8059 135.223L89.8441 135.351C91.6681 133.854 93.2179 132.597 94.2829 131.702L95.5171 130.671L95.8343 130.398C95.8863 130.344 95.9232 130.31 95.9174 130.308Z" fill="#263238"/>
<g opacity="0.3">
<path opacity="0.3" d="M100.039 129.216C100.212 129.056 107.621 122.724 107.621 122.724L111.022 128.423L103.388 135.159L100.039 129.216Z" fill="white"/>
</g>
<path d="M98.4146 169.632C100.71 168.975 104.177 160.45 106.783 150.779C109.39 141.108 110.764 138.97 110.848 135.926C110.932 132.881 110.717 128.881 110.717 128.881L106.174 135.508C105.977 134.229 105.573 132.991 104.978 131.842C104.392 130.648 103.292 129.705 102.396 130.422C101.918 130.804 103.185 132.439 102.91 136.093C102.887 137.549 103.032 139.003 103.34 140.427L94.8998 160.844L98.4146 169.632Z" fill="#FFA8A7"/>
<path d="M64.4495 127.294C61.7834 126.541 59.5239 127.962 58.2686 132.201C56.0681 140.181 54.4695 148.315 53.4864 156.534C53.1278 159.483 52.7213 163.065 55.5428 163.34C57.6947 163.555 63.9115 162.361 64.9994 161.286C66.458 159.877 66.195 154.194 66.195 154.194H62.967C62.967 154.194 63.6604 149.716 63.8637 148.355C64.581 143.782 65.645 138.016 65.645 138.016L64.4495 127.294Z" fill="#F28F8F"/>
<path d="M80.099 123.103L79.0111 132.667L69.5664 133.765L70.9293 121.073L80.099 123.103Z" fill="#FFA8A7"/>
<path d="M59.8826 109.145C60.6597 100.31 65.4538 96.6802 69.1599 95.7966C76.6439 94.0415 84.0323 96.5488 87.0929 101.767C87.7934 103.4 88.1546 105.159 88.1546 106.936C88.1546 108.714 87.7934 110.473 87.0929 112.106C85.467 115.808 59.9184 109.121 59.9184 109.121" fill="#263238"/>
<path d="M87.5592 113.897C87.5592 113.897 88.9102 117.539 88.5515 117.813C87.9877 118.016 87.3933 118.121 86.7941 118.124L87.5592 113.897Z" fill="#FFA8A7"/>
<path d="M83.5301 102.387C85.3114 103.916 88.3122 106.686 87.5112 114.327C86.6265 122.231 84.7136 124.368 83.4225 125.133C82.5617 125.646 78.7479 124.751 76.9786 123.712C74.7788 122.41 69.901 119.055 68.4185 114.53C66.6611 109.205 67.5458 102.853 71.3954 101.193C73.3542 100.352 75.4947 100.02 77.6168 100.229C79.7389 100.437 81.7734 101.18 83.5301 102.387Z" fill="#FFA8A7"/>
<path d="M85.73 102.59C85.7682 104.703 85.3291 106.798 84.4453 108.718C83.5615 110.639 82.2558 112.335 80.6251 113.682C80.6251 113.682 79.5132 110.805 77.0385 111.461C74.5637 112.118 74.6474 115.378 76.4168 117.145C76.8755 117.65 77.4691 118.014 78.1277 118.193C78.7864 118.373 79.4827 118.361 80.1349 118.16C79.7821 120.418 78.7234 122.508 77.1102 124.13C74.5358 124.721 71.8465 124.575 69.3512 123.709C66.8559 122.843 64.6556 121.292 63.0029 119.234C57.5393 112.679 59.1533 102.268 67.6894 99.1993C70.7076 97.9898 74.0089 97.6664 77.2049 98.2671C80.4009 98.8678 83.3586 100.368 85.73 102.59Z" fill="#263238"/>
<path d="M68.4307 266.989L72.5074 272.648C70.6504 273.487 68.6271 273.895 66.5896 273.842C62.9432 273.985 61.9389 272.791 61.8074 272.505C61.1857 271.179 62.1541 268.803 62.4171 266.762L68.4307 266.989Z" fill="#263238"/>
<path d="M72.2563 269.914C72.2563 269.914 77.1938 269.592 80.625 269.162C84.0562 268.732 86.7461 270.356 85.9451 271.801C85.1441 273.245 83.2552 274.379 80.3261 275.382C77.8275 276.23 74.8147 276.839 72.1965 277.615C69.5783 278.391 67.797 279.346 66.2786 278.809C64.581 278.224 63.8876 277.544 63.9952 276.314C64.3655 274.56 64.8244 272.827 65.37 271.12L72.2563 269.914Z" fill="#263238"/>
<path d="M61.8074 261.281C61.8074 261.281 62.4171 266.416 62.4649 267.526C62.5127 268.636 67.4861 268.983 68.4426 266.965L68.598 260.684L61.8074 261.281Z" fill="#F28F8F"/>
<path d="M66.8166 264.445L65.0831 272.242C65.0831 272.242 64.9038 273.185 68.9805 273.794C73.0573 274.403 79.4175 271.669 80.5055 271.12C81.5934 270.571 81.701 269.46 77.7199 269.675C73.7387 269.89 72.3161 269.914 72.3161 269.914L73.6192 266.451L66.8166 264.445Z" fill="#FFA8A7"/>
<path d="M61.8073 160.068C58.4 165.358 55.1721 170.014 54.4786 175.96C53.0201 188.521 57.8022 202.872 58.8184 212.161C56.8853 214.805 55.7675 217.955 55.6024 221.224C55.6024 225.068 61.8073 261.282 61.8073 261.282C61.8073 261.282 66.3144 262.655 68.5859 260.685L72.854 194.061L70.6064 185.954L61.8073 160.068Z" fill="#455A64"/>
<path d="M72.854 194.061L70.6064 185.954C66.3763 184.855 62.294 183.252 58.4479 181.178C58.4479 181.178 60.7553 185.357 67.3426 187.649L70.7738 198.072L71.0727 221.952L72.854 194.061Z" fill="#37474F"/>
<path d="M61.8073 160.068C59.9901 163.029 55.6264 168.116 56.5589 172.987C57.6827 178.957 60.8628 183.052 70.6064 185.954L79.7403 218.991C79.7403 218.991 74.9581 223.445 73.5355 227.671C72.1128 231.898 66.8166 264.446 66.8166 264.446C66.8166 264.446 68.4425 267.096 73.5833 266.451C73.5833 266.451 91.5163 225.63 92.7118 223.003C94.2414 220.314 94.7787 217.175 94.2301 214.132C93.6563 209.857 87.5591 163.029 87.5591 163.029L61.8073 160.068Z" fill="#455A64"/>
<path d="M60.1456 130.255C60.5121 129.281 61.2027 128.462 62.1016 127.936C63.0005 127.41 64.0532 127.208 65.0832 127.365C71.4554 129.097 81.3663 131.377 83.2433 131.926C83.2433 131.926 82.3945 144.188 89.7351 148.511C89.3884 151.245 87.5233 163.029 87.5233 163.029C87.5233 163.029 78.7003 167.304 71.4434 165.202C64.1865 163.101 61.7476 160.068 61.7476 160.068L65.3342 154.158C64.5571 152.236 61.5564 145.705 59.6196 139.639C58.9476 136.521 59.1293 133.279 60.1456 130.255Z" fill="#FFB900"/>
<path d="M64.4495 151.83C67.4678 153.643 70.6307 155.204 73.9061 156.498C70.9292 156.421 68.019 155.6 65.4418 154.11L64.4495 151.83Z" fill="#E0E0E0"/>
<path d="M89.5796 147.591C86.9719 146.397 84.8264 144.385 83.4705 141.86C83.6904 143.8 84.3562 145.663 85.4159 147.303C86.4756 148.943 87.9006 150.317 89.5796 151.316V147.591Z" fill="#E0E0E0"/>
<path d="M83.303 131.926C87.3081 133.12 89.7948 133.502 91.9587 135.436C94.8041 137.991 97.7451 152.439 98.3428 155.423C99.3829 160.593 100.531 165.966 99.4069 168.378C98.5939 170.121 94.1704 171.423 92.2337 165.787C91.8272 164.593 91.7435 164.044 91.3848 162.969C89.5557 157.573 86.8059 147.257 86.8059 147.257C86.8059 147.257 81.3902 144.272 83.303 131.926Z" fill="#FFA8A7"/>
<path d="M63.8876 99.1995C62.4649 100.023 59.8945 100.823 58.2925 108.286C56.9883 114.546 56.2124 120.904 55.9731 127.294C56.0329 129.61 60.839 136.046 70.9771 135.437C81.1152 134.828 84.7974 128.894 84.7974 128.894C84.7974 128.894 79.8121 126.864 80.2066 118.148C80.2066 118.148 78.4492 121.598 73.6312 119.867C68.8132 118.136 63.8876 99.1995 63.8876 99.1995Z" fill="#263238"/>
</svg>
